<svg width="20" height="20" xmlns="http://www.w3.org/2000/svg" xmlns:xlink="http://www.w3.org/1999/xlink"><defs><path d="M14.6 5.18c.2.16.34.36.38.62a.9.9 0 0 1-.16.72L9.85 13.6a1 1 0 0 1-.61.37.83.83 0 0 1-.69-.16 83.7 83.7 0 0 1-2.54-2.65l-.75-.8A.96.96 0 0 1 5 9.69c0-.27.1-.5.29-.68a.89.89 0 0 1 1.32.04l2.37 2.52 4.32-6.18a1 1 0 0 1 .62-.37c.24-.05.47 0 .68.16z" id="b"/><filter x="-20%" y="-11.1%" width="140%" height="144.4%" filterUnits="objectBoundingBox" id="a"><feOffset dy="1" in="SourceAlpha" result="shadowOffsetOuter1"/><feGaussianBlur stdDeviation=".5" in="shadowOffsetOuter1" result="shadowBlurOuter1"/><feColorMatrix values="0 0 0 0 0 0 0 0 0 0 0 0 0 0 0 0 0 0 0.5 0" in="shadowBlurOuter1"/></filter></defs><g fill="none" fill-rule="evenodd"><use fill="#000" filter="url(#a)" xlink:href="#b"/><use fill="#FFF" xlink:href="#b"/></g></svg>