<svg width="18" height="18" xmlns="http://www.w3.org/2000/svg"><g fill="none" fill-rule="evenodd"><path fill="#5EA80E" d="M0 0h18v18H0z"/><path d="M9 13.83c1.16 0 2.15-.42 2.97-1.24a4.05 4.05 0 0 0 1.23-2.96 4 4 0 0 0-1.23-2.95A4.06 4.06 0 0 0 9 5.46c-1.16 0-2.15.4-2.97 1.22A4 4 0 0 0 4.8 9.63c0 1.16.41 2.14 1.23 2.96.82.82 1.8 1.24 2.97 1.24zm0-9.57c1.5 0 2.78.53 3.83 1.58a5.17 5.17 0 0 1 1.58 3.79c0 1.47-.53 2.74-1.58 3.79A5.21 5.21 0 0 1 9 15c-1.5 0-2.78-.53-3.83-1.58a5.17 5.17 0 0 1-1.58-3.8c0-1.46.53-2.73 1.58-3.78A5.21 5.21 0 0 1 9 4.26zm.31 2.4V9.8l2.4 1.4-.46.72-2.84-1.68V6.66h.9zM6.52 3.9L3.76 6.19 3 5.29 5.76 3l.76.9zM15 5.3l-.76.92-2.76-2.32.76-.9L15 5.3z" fill="#FFF"/></g></svg>