<svg xmlns="http://www.w3.org/2000/svg" xmlns:xlink="http://www.w3.org/1999/xlink" width="115.143" height="60" viewBox="0 0 115.143 60">
  <defs>
    <linearGradient id="linear-gradient" x1="-0.996" y1="-0.849" x2="1.685" y2="1.574" gradientUnits="objectBoundingBox">
      <stop offset="0" stop-color="#aa783c"/>
      <stop offset="0.454" stop-color="#f6da94"/>
      <stop offset="1" stop-color="#aa7638"/>
    </linearGradient>
    <linearGradient id="linear-gradient-2" x1="-2.201" y1="-1.491" x2="1.027" y2="0.892" xlink:href="#linear-gradient"/>
    <linearGradient id="linear-gradient-3" x1="0.5" y1="1.024" x2="0.516" y2="-0.145" xlink:href="#linear-gradient"/>
    <linearGradient id="linear-gradient-4" x1="-0.728" y1="-0.35" x2="2.555" y2="2.174" xlink:href="#linear-gradient"/>
    <linearGradient id="linear-gradient-5" x1="-9.831" y1="-1.281" x2="4.832" y2="1.247" xlink:href="#linear-gradient"/>
    <linearGradient id="linear-gradient-6" x1="-0.5" y1="-0.094" x2="2.625" y2="1.761" xlink:href="#linear-gradient"/>
    <linearGradient id="linear-gradient-7" x1="1.452" y1="-3.218" x2="-0.83" y2="5.693" xlink:href="#linear-gradient"/>
    <linearGradient id="linear-gradient-8" x1="-0.861" y1="-0.307" x2="3.392" y2="2.216" xlink:href="#linear-gradient"/>
    <linearGradient id="linear-gradient-9" x1="-2.851" y1="-1.097" x2="7.25" y2="3.919" xlink:href="#linear-gradient"/>
    <linearGradient id="linear-gradient-10" x1="7.224" y1="0.354" x2="-31.542" y2="1.177" xlink:href="#linear-gradient"/>
    <linearGradient id="linear-gradient-11" x1="4.877" y1="0.396" x2="-27.912" y2="1.22" xlink:href="#linear-gradient"/>
    <linearGradient id="linear-gradient-12" x1="4.219" y1="0.422" x2="-35.24" y2="1.245" xlink:href="#linear-gradient"/>
    <linearGradient id="linear-gradient-13" x1="2.74" y1="0.453" x2="-36.755" y2="1.276" xlink:href="#linear-gradient"/>
  </defs>
  <g id="_170X60" data-name="170X60" transform="translate(-8.158 -145.051)">
    <path id="Path_47280" data-name="Path 47280" d="M123.276,275.665a14.879,14.879,0,0,1-4.667-.646,11.7,11.7,0,0,1-7.48-6.64,14.338,14.338,0,0,1-1.116-4.034,15.539,15.539,0,0,1-.108-2.915,14.384,14.384,0,0,1,2.152-7A11.958,11.958,0,0,1,119.686,249a15.123,15.123,0,0,1,4.171-.4,14.181,14.181,0,0,1,4.856,1.01,12.056,12.056,0,0,1,6.25,5.772,14.2,14.2,0,0,1,1.471,4.809,15.171,15.171,0,0,1,.1,2.631,15.02,15.02,0,0,1-1.423,5.842,11.837,11.837,0,0,1-4.7,5.211,12.5,12.5,0,0,1-3.98,1.493A14.37,14.37,0,0,1,123.276,275.665Zm-8.558-13.5a9.984,9.984,0,0,0,.18,2.031,10.3,10.3,0,0,0,.756,2.442,1.15,1.15,0,0,0,.148.24.14.14,0,0,0,.125.036,1.258,1.258,0,0,0,.25-.135,25.186,25.186,0,0,0,5.708-5.218,20.277,20.277,0,0,0,3.613-6.894c.107-.363.19-.735.283-1.1a.246.246,0,0,0-.141-.223c-.045-.014-.089-.032-.135-.042a10.245,10.245,0,0,0-4.45-.015,7.6,7.6,0,0,0-2.843,1.259,7.914,7.914,0,0,0-2.6,3.238A10.148,10.148,0,0,0,114.718,262.166Zm17-.1a9.471,9.471,0,0,0-.169-1.918,9.75,9.75,0,0,0-1.3-3.441c-.126-.2-.272-.388-.415-.577a.136.136,0,0,0-.121-.029.186.186,0,0,0-.1.094,1.276,1.276,0,0,0-.062.2,21.044,21.044,0,0,1-.93,2.687,21.643,21.643,0,0,1-4.524,6.68,27.041,27.041,0,0,1-4.691,3.8c-.139.09-.281.177-.419.269-.059.039-.113.086-.17.129a.11.11,0,0,0,.025.173,5.857,5.857,0,0,0,1.632.684,10.416,10.416,0,0,0,5.141.1,7.316,7.316,0,0,0,3.046-1.478,7.685,7.685,0,0,0,2.186-2.943A10.8,10.8,0,0,0,131.721,262.062Z" transform="translate(-77.797 -79.184)" fill="url(#linear-gradient)"/>
    <path id="Path_47281" data-name="Path 47281" d="M287.32,274.61a22.543,22.543,0,0,1-3.993-.4,11.24,11.24,0,0,1-3.565-1.383,9.3,9.3,0,0,1-3.686-4.407.237.237,0,0,1,.1-.307c.02-.012.042-.023.063-.034l3.6-1.865a.281.281,0,0,1,.133-.041.174.174,0,0,1,.123.057,4.112,4.112,0,0,1,.21.368,5.933,5.933,0,0,0,2.153,2.322,7.794,7.794,0,0,0,2.492,1.014,10.876,10.876,0,0,0,3.891.179,8.964,8.964,0,0,0,1.934-.458,4.838,4.838,0,0,0,1.191-.632,3.172,3.172,0,0,0,1.253-1.765,3.471,3.471,0,0,0,.033-1.693,2.7,2.7,0,0,0-.891-1.427,4.827,4.827,0,0,0-1.2-.751,8.5,8.5,0,0,0-1.689-.548,20.222,20.222,0,0,0-2.036-.333,26.636,26.636,0,0,1-4.472-.838,12.561,12.561,0,0,1-1.927-.73,8.375,8.375,0,0,1-1.341-.8,5.923,5.923,0,0,1-2.284-3.343,8.1,8.1,0,0,1-.11-3.669,6.165,6.165,0,0,1,1.691-3.155,8.137,8.137,0,0,1,2.19-1.569,12.542,12.542,0,0,1,3.582-1.131,16.815,16.815,0,0,1,4.332-.116,12.872,12.872,0,0,1,3.595.827,9.378,9.378,0,0,1,2.35,1.32,8.188,8.188,0,0,1,2.22,2.659c.091.171.071.285-.073.36q-1.738.9-3.479,1.793a.232.232,0,0,1-.316-.065,7.078,7.078,0,0,0-4.258-2.518,8.772,8.772,0,0,0-2.336-.178,8.344,8.344,0,0,0-2.173.347,4.737,4.737,0,0,0-1.457.728,3.165,3.165,0,0,0-.651.654,2.81,2.81,0,0,0-.475,2.3,1.989,1.989,0,0,0,.546.984,3.342,3.342,0,0,0,.857.63,6.79,6.79,0,0,0,1.394.531,15.48,15.48,0,0,0,2.164.421c1.012.129,2.024.257,3.029.439a17.394,17.394,0,0,1,3.556.994,9.038,9.038,0,0,1,1.868,1.024,6.283,6.283,0,0,1,2.544,3.9,9.227,9.227,0,0,1,.033,3.748,6.952,6.952,0,0,1-2.777,4.332,10.022,10.022,0,0,1-3.116,1.529,14.029,14.029,0,0,1-3.283.6C288.286,274.551,287.717,274.586,287.32,274.61Z" transform="translate(-204.888 -78.024)" fill="url(#linear-gradient-2)"/>
    <path id="Path_47282" data-name="Path 47282" d="M401.223,276.844H399.3c-.166,0-.333,0-.5-.006a.307.307,0,0,1-.284-.179c-.093-.193-.178-.388-.264-.584q-4.082-9.328-8.165-18.657c-.123-.282-.261-.556-.395-.833-.009-.018-.037-.027-.057-.04-.044-.03-.081-.018-.108.04-.1.215-.2.428-.3.645Q385.1,266.615,380.973,276c-.444,1.008-.168.83-1.276.84-1.164.011-2.328,0-3.492,0q-.32,0-.641-.009a.176.176,0,0,1-.138-.26c.073-.175.151-.348.229-.521q1.8-4.029,3.61-8.058,3.688-8.218,7.378-16.436c.078-.173.157-.345.244-.514a.268.268,0,0,1,.228-.146c.118-.008.237-.009.356-.009q2.138,0,4.275,0a2.76,2.76,0,0,1,.426.023.254.254,0,0,1,.164.115c.111.209.21.425.307.642q2.784,6.2,5.567,12.409l5.335,11.889c.087.195.173.39.256.587s.028.277-.156.282-.38.006-.57.006Z" transform="translate(-280.873 -80.946)" fill="url(#linear-gradient-3)"/>
    <path id="Path_47283" data-name="Path 47283" d="M15.107,250.69c1.662,0,3.325-.005,4.987,0a15.055,15.055,0,0,1,1.636.068,8.754,8.754,0,0,1,6.851,4.18,9.723,9.723,0,0,1,.779,8.231,8.523,8.523,0,0,1-6.133,5.537,11.084,11.084,0,0,1-2.893.327q-3.171-.005-6.341,0c-.214,0-.427,0-.641.008a.266.266,0,0,0-.286.255c-.009.19-.012.38-.012.569q0,2.957,0,5.914c0,.237-.013.474-.025.71a.212.212,0,0,1-.186.182c-.095.007-.19.014-.284.014q-1.959,0-3.919,0a1.867,1.867,0,0,1-.352-.036.162.162,0,0,1-.093-.1.725.725,0,0,1-.03-.21c0-.19,0-.38,0-.57q0-5.13,0-10.26c0-.19,0-.38,0-.57.007-.31.065-.368.378-.374.214,0,.427,0,.641,0q5.45,0,10.9,0a6.989,6.989,0,0,0,1.347-.106,4.243,4.243,0,0,0,3.5-3.241,4.649,4.649,0,0,0-.274-3.27,4.214,4.214,0,0,0-3.32-2.5,8.053,8.053,0,0,0-1.348-.095q-5.415,0-10.83,0c-.238,0-.475,0-.712-.009a.247.247,0,0,1-.277-.254c0-.024,0-.047,0-.071q0-1.995,0-3.99a.308.308,0,0,1,.023-.139c.032-.06.071-.127.153-.13.237-.01.473-.025.71-.026q3.028,0,6.056,0Z" transform="translate(0 -80.792)" fill="url(#linear-gradient-4)"/>
    <path id="Path_47284" data-name="Path 47284" d="M243.565,263.793q0,6.054,0,12.109c0,.237-.009.474-.019.711a.23.23,0,0,1-.236.214q-2.172,0-4.345,0a.293.293,0,0,1-.137-.031.208.208,0,0,1-.091-.1.651.651,0,0,1-.041-.206c-.007-.237-.007-.475-.007-.712q0-11.931,0-23.862c0-.284.014-.569.024-.853a.256.256,0,0,1,.194-.179c.095-.006.19-.011.285-.012q1.923,0,3.846,0c.117,0,.235.017.352.029a.173.173,0,0,1,.143.141,1.158,1.158,0,0,1,.028.282c0,.237,0,.475,0,.712Q243.565,257.917,243.565,263.793Z" transform="translate(-176.31 -80.935)" fill="url(#linear-gradient-5)"/>
    <path id="Path_47285" data-name="Path 47285" d="M222.534,156.719a11.787,11.787,0,0,1-23.185,3.13,10.3,10.3,0,0,1-.372-2.6,1.191,1.191,0,0,1,.03-.282.146.146,0,0,1,.1-.093c.236-.014.473-.019.71-.019.133,0,.207.077.222.223.022.212.044.425.058.638a10.679,10.679,0,0,0,7.039,9.2,10.314,10.314,0,0,0,4.553.592,10.706,10.706,0,0,0,1.82-21.009,9.542,9.542,0,0,0-2.175-.344c-.119,0-.237-.012-.355-.021a.207.207,0,0,1-.191-.176q-.009-.354,0-.708a.227.227,0,0,1,.181-.191,1.957,1.957,0,0,1,.213-.011,11.825,11.825,0,0,1,10.894,8.475A10.608,10.608,0,0,1,222.534,156.719Z" transform="translate(-145.938)" fill="url(#linear-gradient-6)"/>
    <path id="Path_47286" data-name="Path 47286" d="M50.724,386.766H9.261c-.261,0-.523,0-.784,0s-.3-.119-.251-.383a.18.18,0,0,1,.143-.139.735.735,0,0,1,.211-.023c.238,0,.475,0,.712,0h83q.392,0,.783,0c.16,0,.28.077.271.331a.207.207,0,0,1-.16.2c-.071.006-.142.014-.213.015-.238,0-.475,0-.712,0Z" transform="translate(-0.039 -184.441)" fill="url(#linear-gradient-7)"/>
    <path id="Path_47287" data-name="Path 47287" d="M212.227,167.058a8.667,8.667,0,0,1,17.1-2.066,6.732,6.732,0,0,1,.21,1.621c0,.071-.011.141-.015.212,0,.049-.086.151-.13.151-.26,0-.519,0-.779-.01a.14.14,0,0,1-.1-.086,2.778,2.778,0,0,1-.052-.351,8.829,8.829,0,0,0-.389-1.951,7.582,7.582,0,1,0-8.957,9.789,6.369,6.369,0,0,0,1.479.2c.209,0,.29.095.294.313,0,.189,0,.379-.012.568a.231.231,0,0,1-.238.212,8.685,8.685,0,0,1-8.148-6.5A8.312,8.312,0,0,1,212.227,167.058Z" transform="translate(-156.071 -10.15)" fill="url(#linear-gradient-8)"/>
    <path id="Path_47288" data-name="Path 47288" d="M238.264,178.633c.57,0,1.14-.008,1.709,0a3.751,3.751,0,0,1,1.123.157,2.845,2.845,0,0,1,1.848,1.745,3.114,3.114,0,0,1-.039,2.427,2.817,2.817,0,0,1-2.05,1.706,4.05,4.05,0,0,1-.988.115c-.617-.007-1.235,0-1.852,0a1.341,1.341,0,0,0-.35.04.227.227,0,0,0-.133.143,1.605,1.605,0,0,0-.027.353c0,.5,0,1,0,1.5,0,.118-.018.235-.03.353a.164.164,0,0,1-.137.145,5.7,5.7,0,0,1-1.278,0c-.052-.005-.111-.082-.139-.139a.49.49,0,0,1-.035-.208q0-1.674,0-3.348a.469.469,0,0,1,.036-.207.25.25,0,0,1,.146-.131,3.641,3.641,0,0,1,.5-.024c1.021,0,2.042,0,3.063,0,.19,0,.381,0,.569-.013a1.423,1.423,0,0,0,1.3-1.21,1.853,1.853,0,0,0-.021-.707,1.4,1.4,0,0,0-1.176-1.09,5.866,5.866,0,0,0-.711-.031c-.949,0-1.9,0-2.849,0-.19,0-.38,0-.57-.008-.173-.006-.278-.1-.28-.254,0-.356,0-.711,0-1.067a.219.219,0,0,1,.231-.216c.142-.007.285-.011.427-.012q.855,0,1.709,0Z" transform="translate(-174.165 -25.682)" fill="url(#linear-gradient-9)"/>
    <path id="Path_47289" data-name="Path 47289" d="M380.126,377.667c0-.853,0-1.705,0-2.558a1.688,1.688,0,0,1,.043-.35.162.162,0,0,1,.1-.091.742.742,0,0,1,.211-.024c.782,0,1.563,0,2.345,0a3.311,3.311,0,0,1,.84.132,1.793,1.793,0,0,1,.2.067,1.448,1.448,0,0,1,.817,1.986,1.841,1.841,0,0,1-.551.638c-.063.056-.052.108.034.155s.168.087.251.132a1.536,1.536,0,0,1,.492,2.113,1.332,1.332,0,0,1-.519.473,2.407,2.407,0,0,1-.876.273,4.157,4.157,0,0,1-.425.025q-1.315,0-2.629,0a.654.654,0,0,1-.21-.03.159.159,0,0,1-.094-.1,3.066,3.066,0,0,1-.032-.424c0-.805,0-1.611,0-2.416Zm1.891,2.456v.01h.284a5.7,5.7,0,0,0,1.2-.074,2.119,2.119,0,0,0,.4-.124.9.9,0,0,0,.569-.829,1.357,1.357,0,0,0,0-.142.96.96,0,0,0-.636-.933,1.98,1.98,0,0,0-.763-.138c-.663-.006-1.326,0-1.989,0a1.282,1.282,0,0,0-.14.015.22.22,0,0,0-.189.18c-.01.213-.019.425-.019.638q0,.568.008,1.136a.256.256,0,0,0,.271.264C381.354,380.127,381.686,380.123,382.017,380.123Zm.024-4.929h0c-.356,0-.711,0-1.067,0a.225.225,0,0,0-.219.232c0,.545-.005,1.091-.007,1.636a.24.24,0,0,0,.258.27c.617,0,1.234,0,1.85,0a1.753,1.753,0,0,0,.624-.124.954.954,0,0,0,.68-1.041.905.905,0,0,0-.514-.8,1.439,1.439,0,0,0-.681-.183C382.657,375.192,382.349,375.194,382.041,375.194Z" transform="translate(-284.48 -175.591)" fill="url(#linear-gradient-10)"/>
    <path id="Path_47290" data-name="Path 47290" d="M416.866,380.64h-.105a.337.337,0,0,1-.322-.229c-.171-.391-.355-.775-.532-1.164a.282.282,0,0,0-.272-.186c-.451,0-.9-.007-1.351-.007-.522,0-1.043.005-1.565,0a.338.338,0,0,0-.329.222c-.16.344-.321.687-.469,1.037-.141.332-.26.355-.618.31a.14.14,0,0,1-.094-.164c.043-.11.083-.221.132-.329q1.151-2.523,2.3-5.044c.039-.086.082-.171.124-.256a.3.3,0,0,1,.281-.18,1.247,1.247,0,0,1,.283.008.321.321,0,0,1,.172.109,1.192,1.192,0,0,1,.135.248q1.2,2.618,2.4,5.237c.029.065.056.131.082.2.037.094-.025.173-.145.182Zm-2.7-2.123v-.008c.4,0,.8,0,1.207,0,.054,0,.128-.107.113-.158a1.513,1.513,0,0,0-.06-.2q-.521-1.167-1.048-2.331c-.047-.1-.065-.257-.2-.272-.19-.022-.193.175-.243.286-.363.8-.715,1.6-1.068,2.4-.08.182-.023.283.159.285C413.4,378.521,413.782,378.518,414.161,378.518Z" transform="translate(-308.25 -175.596)" fill="url(#linear-gradient-11)"/>
    <path id="Path_47291" data-name="Path 47291" d="M448.227,380.639c-.664,0-1.329,0-1.993,0a2.9,2.9,0,0,1-.35-.039c-.056-.007-.076-.043-.088-.1a.412.412,0,0,1,.044-.341q.186-.261.384-.512,1.59-2.009,3.182-4.017a1.916,1.916,0,0,0,.191-.3c.011-.02-.033-.1-.06-.1a2.129,2.129,0,0,0-.352-.029c-.878,0-1.756,0-2.634,0a4.6,4.6,0,0,1-.5-.017.239.239,0,0,1-.161-.107.36.36,0,0,1,.016-.341.176.176,0,0,1,.116-.074,1.781,1.781,0,0,1,.284-.018h3.844c.095,0,.189.008.284.015a.2.2,0,0,1,.155.2.487.487,0,0,1-.082.337c-.13.169-.26.338-.392.506q-1.457,1.842-2.915,3.684c-.132.167-.254.342-.379.515a.122.122,0,0,0,.079.16c.189.011.378.027.566.028.854,0,1.708,0,2.562,0q.214,0,.427.012c.157.008.239.107.247.286a.2.2,0,0,1-.2.236q-.5.013-1,.016c-.427,0-.854,0-1.281,0Z" transform="translate(-334.693 -175.59)" fill="url(#linear-gradient-12)"/>
    <path id="Path_47292" data-name="Path 47292" d="M479.252,380.64c-.617,0-1.233,0-1.85,0-.142,0-.284-.008-.426-.017a.218.218,0,0,1-.172-.261.818.818,0,0,1,.1-.262c.105-.157.226-.3.344-.453q1.481-1.868,2.962-3.735c.132-.167.261-.337.384-.511a.147.147,0,0,0,0-.129.152.152,0,0,0-.109-.064c-.166-.009-.332-.009-.5-.009h-2.419a4.659,4.659,0,0,1-.5-.017.234.234,0,0,1-.161-.107.386.386,0,0,1,.014-.343.174.174,0,0,1,.117-.071,1.751,1.751,0,0,1,.283-.02q1.921,0,3.842,0c.095,0,.189.008.283.015a.2.2,0,0,1,.155.2.484.484,0,0,1-.077.338c-.143.189-.288.377-.435.563q-1.435,1.813-2.87,3.626c-.132.167-.255.342-.381.514a.119.119,0,0,0,.077.161c.165.011.33.028.495.028.83,0,1.66,0,2.49,0,.19,0,.379,0,.568.012s.266.127.244.348a.159.159,0,0,1-.118.154,1.816,1.816,0,0,1-.352.034c-.664,0-1.328,0-1.992,0Z" transform="translate(-358.417 -175.59)" fill="url(#linear-gradient-13)"/>
  </g>
</svg>
