<?xml version="1.0" encoding="utf-8"?>
<!-- Generator: Adobe Illustrator 28.1.0, SVG Export Plug-In . SVG Version: 6.00 Build 0)  -->
<svg version="1.1" id="Layer_1" xmlns="http://www.w3.org/2000/svg" xmlns:xlink="http://www.w3.org/1999/xlink" x="0px" y="0px"
	 viewBox="0 0 396 149" style="enable-background:new 0 0 396 149;" xml:space="preserve">
<style type="text/css">
	.st0{fill:url(#SVGID_1_);}
	.st1{fill:url(#SVGID_00000099640910415401378990000007628006153424649638_);}
	.st2{fill:url(#SVGID_00000063616191568645346530000014856738129137075084_);}
	.st3{fill:url(#SVGID_00000085948073333002701100000018064158317659638161_);}
	.st4{fill:url(#SVGID_00000057859199988335554240000012708832220406755719_);}
	.st5{fill:url(#SVGID_00000158027672269088072460000007631878213422206873_);}
	.st6{fill:url(#SVGID_00000023246563422636370060000010882118314080310447_);}
	.st7{fill:url(#SVGID_00000114767310568175984790000012935302342671448751_);}
	.st8{fill:url(#SVGID_00000116234166953357941300000005669020605429071288_);}
	.st9{fill:url(#SVGID_00000183955039685179798060000016326975933599737272_);}
	.st10{fill:url(#SVGID_00000152986336953718559510000016546101027588348322_);}
	.st11{fill:url(#SVGID_00000090282264130316814900000008155225144887921814_);}
	.st12{fill:url(#SVGID_00000139281385593441738570000001179928101573691822_);}
	.st13{fill:url(#SVGID_00000049937819338877581040000012383042343037824170_);}
	.st14{fill:url(#SVGID_00000134226345839435119570000017319834667461809558_);}
	.st15{fill:url(#SVGID_00000054225819769361557690000009614263941618254513_);}
</style>
<g>
	<g>
		<linearGradient id="SVGID_1_" gradientUnits="userSpaceOnUse" x1="7.3077" y1="54.439" x2="495.6065" y2="219.3755">
			<stop  offset="0" style="stop-color:#FEE35F"/>
			<stop  offset="0" style="stop-color:#DDA027"/>
			<stop  offset="0.3198" style="stop-color:#CE9B2B"/>
			<stop  offset="0.6802" style="stop-color:#FEF48E"/>
			<stop  offset="1" style="stop-color:#FFD046"/>
		</linearGradient>
		<path class="st0" d="M202.8,135.8c-1.5,0.8-5.2,1.6-9.8,1.6c-14.6,0-21.1-9.1-21.1-19.5c0-13.8,10.1-20.8,21.8-20.8
			c4.5,0,8.1,0.9,9.8,1.7l-2,8.3c-1.7-0.7-4.1-1.4-7.3-1.4c-6,0-11.2,3.5-11.2,11.5c0,7.1,4.2,11.5,11.4,11.5c2.5,0,5.3-0.5,7-1.1
			L202.8,135.8z"/>
		
			<linearGradient id="SVGID_00000111889171758830511690000002934065630113577640_" gradientUnits="userSpaceOnUse" x1="9.9333" y1="46.6658" x2="498.2321" y2="211.6023">
			<stop  offset="0" style="stop-color:#FEE35F"/>
			<stop  offset="0" style="stop-color:#DDA027"/>
			<stop  offset="0.3198" style="stop-color:#CE9B2B"/>
			<stop  offset="0.6802" style="stop-color:#FEF48E"/>
			<stop  offset="1" style="stop-color:#FFD046"/>
		</linearGradient>
		<path style="fill:url(#SVGID_00000111889171758830511690000002934065630113577640_);" d="M219.5,127.8l-2.2,9.1h-10.9l11.4-39.1
			h13.9l11.7,39.1h-11.3l-2.5-9.1H219.5z M228.2,120.1l-1.8-7c-0.6-2.2-1.3-5.4-1.9-7.7h-0.1c-0.6,2.3-1.2,5.5-1.7,7.7l-1.7,7H228.2
			z"/>
		
			<linearGradient id="SVGID_00000089539994745753971400000017179792218826319007_" gradientUnits="userSpaceOnUse" x1="14.2168" y1="33.9844" x2="502.5157" y2="198.9209">
			<stop  offset="0" style="stop-color:#FEE35F"/>
			<stop  offset="0" style="stop-color:#DDA027"/>
			<stop  offset="0.3198" style="stop-color:#CE9B2B"/>
			<stop  offset="0.6802" style="stop-color:#FEF48E"/>
			<stop  offset="1" style="stop-color:#FFD046"/>
		</linearGradient>
		<path style="fill:url(#SVGID_00000089539994745753971400000017179792218826319007_);" d="M249.1,126.4c2.4,1.2,6.2,2.4,10.2,2.4
			c3.6,0,5.3-1.2,5.3-3.2c0-1.9-1.7-3-6.2-4.5c-6.6-2.4-11-6-11-11.8c0-6.9,5.9-12.3,15.7-12.3c4.6,0,8,0.9,10.6,2l-2.2,8.4
			c-1.7-0.8-4.6-1.9-8.5-1.9c-3.2,0-4.9,1.2-4.9,2.9c0,2,2.1,2.7,7,4.6c7,2.6,10.2,6.3,10.2,11.8c0,6.7-5.2,12.5-16.7,12.5
			c-4.7,0-9.3-1.2-11.5-2.4L249.1,126.4z"/>
		
			<linearGradient id="SVGID_00000039115057588818165080000012748554245489733252_" gradientUnits="userSpaceOnUse" x1="16.8122" y1="26.3006" x2="505.1111" y2="191.237">
			<stop  offset="0" style="stop-color:#FEE35F"/>
			<stop  offset="0" style="stop-color:#DDA027"/>
			<stop  offset="0.3198" style="stop-color:#CE9B2B"/>
			<stop  offset="0.6802" style="stop-color:#FEF48E"/>
			<stop  offset="1" style="stop-color:#FFD046"/>
		</linearGradient>
		<path style="fill:url(#SVGID_00000039115057588818165080000012748554245489733252_);" d="M291.5,97.7v39.1H281V97.7H291.5z"/>
		
			<linearGradient id="SVGID_00000116198734103409778340000007229486276372286855_" gradientUnits="userSpaceOnUse" x1="19.8129" y1="17.417" x2="508.1117" y2="182.3535">
			<stop  offset="0" style="stop-color:#FEE35F"/>
			<stop  offset="0" style="stop-color:#DDA027"/>
			<stop  offset="0.3198" style="stop-color:#CE9B2B"/>
			<stop  offset="0.6802" style="stop-color:#FEF48E"/>
			<stop  offset="1" style="stop-color:#FFD046"/>
		</linearGradient>
		<path style="fill:url(#SVGID_00000116198734103409778340000007229486276372286855_);" d="M298.7,136.9V97.7h12.4l6.2,12
			c2.1,3.9,4.4,9.1,6.2,13.7h0.2c-0.6-5.2-0.8-10.6-0.8-16.4v-9.3h9.6v39.1h-11l-6.7-13c-2.1-4.1-4.7-9.4-6.6-14.1h-0.2
			c0.3,5.3,0.4,11.2,0.4,17.5v9.6H298.7z"/>
		
			<linearGradient id="SVGID_00000009574186638571444670000000525657492910684854_" gradientUnits="userSpaceOnUse" x1="-32.0933" y1="-14.1955" x2="456.2055" y2="150.741">
			<stop  offset="0" style="stop-color:#FEE35F"/>
			<stop  offset="0" style="stop-color:#DDA027"/>
			<stop  offset="0.3198" style="stop-color:#CE9B2B"/>
			<stop  offset="0.6802" style="stop-color:#FEF48E"/>
			<stop  offset="1" style="stop-color:#FFD046"/>
		</linearGradient>
		<path style="fill:url(#SVGID_00000009574186638571444670000000525657492910684854_);" d="M356.9,137.5c-12.1,0-18.8-9.1-18.8-20
			c0-11.4,7.4-20.4,19.5-20.4c12.6,0,19,9.4,19,19.8C376.5,129.5,368.9,137.5,356.9,137.5L356.9,137.5z M357.4,129.2
			c5.1,0,8-4.9,8-12c0-6.7-3-11.8-8.1-11.8c-5.1,0-8.1,5.1-8.1,11.9c-0.1,7,3.1,11.9,8.1,11.9H357.4z"/>
	</g>
	<g>
		
			<linearGradient id="SVGID_00000162346154795090959960000014738493433623526050_" gradientUnits="userSpaceOnUse" x1="77.3699" y1="112.543" x2="157.4386" y2="112.543">
			<stop  offset="0" style="stop-color:#FEE35F"/>
			<stop  offset="0" style="stop-color:#DDA027"/>
			<stop  offset="0.3198" style="stop-color:#CE9B2B"/>
			<stop  offset="0.6802" style="stop-color:#FEF48E"/>
			<stop  offset="1" style="stop-color:#FFD046"/>
		</linearGradient>
		<path style="fill:url(#SVGID_00000162346154795090959960000014738493433623526050_);" d="M144.2,82.7c0,0-3.4-6.3-6.1-1.2
			c0,0-0.6,1.9,6.4,5.2c0,0,9.9,6.6,2.7,18c-6.3,7.3-24.3,12.8-61.6-2.7c0,0-4.1,14.6-8.2,19.8c0,0,34.1,35.1,63.9,20.2
			c0,0,14.6-7.2,16.2-30.4C157.4,111.5,157.8,97.5,144.2,82.7z M125,125.5c-10.2-0.9-22.7-6.3-37.4-15.3c0,0,61.4,30,63.7-15
			C151.3,95.2,158.5,129.9,125,125.5z"/>
		
			<linearGradient id="SVGID_00000055697224007797595390000004672740761577752461_" gradientUnits="userSpaceOnUse" x1="16.8716" y1="115.2074" x2="40.4113" y2="115.2074">
			<stop  offset="0" style="stop-color:#FEE35F"/>
			<stop  offset="0" style="stop-color:#DDA027"/>
			<stop  offset="0.3198" style="stop-color:#CE9B2B"/>
			<stop  offset="0.6802" style="stop-color:#FEF48E"/>
			<stop  offset="1" style="stop-color:#FFD046"/>
		</linearGradient>
		<path style="fill:url(#SVGID_00000055697224007797595390000004672740761577752461_);" d="M16.9,120.5c-0.2,2.7,0.8,8.8,7.8,7.7
			c0,0,5.4-1,0.8-9.3c0,0-3.7-9.4,15-16.6C40.4,102.3,18.3,99.1,16.9,120.5z"/>
		
			<linearGradient id="SVGID_00000070819870004239904810000007060945886093586048_" gradientUnits="userSpaceOnUse" x1="9.0828" y1="77.6795" x2="117.8996" y2="77.6795">
			<stop  offset="0" style="stop-color:#FEE35F"/>
			<stop  offset="0" style="stop-color:#DDA027"/>
			<stop  offset="0.3198" style="stop-color:#CE9B2B"/>
			<stop  offset="0.6802" style="stop-color:#FEF48E"/>
			<stop  offset="1" style="stop-color:#FFD046"/>
		</linearGradient>
		<path style="fill:url(#SVGID_00000070819870004239904810000007060945886093586048_);" d="M97.2,55.4l2-4.4l13.1-3.4
			c0,0,8.9-0.3,4.3-6c0,0-8.4,5.4-17.1,7.5c0,0,12.6-23.9-1.1-34.9c0,0-17.4-14.6-36.7,6.1c0,0-16.6,28.8,13.9,34.5L59.8,97.3
			c0,0-24.9-7.7-38.2,4.9c0,0-23.2,18.1-2.6,34.5c0,0,30.6,15.8,47.4-23.3l3.7,2.7c0,0-8.7,31.2-41.9,27.7c0,0-10.7-2.4-14.6-7
			c-3.9-4.7-6.2,1-2.8,3.5c0,0,25.8,14.4,47.5-2.3c0,0,16.3-12.2,21.9-29.2C85.7,91.9,97.2,55.4,97.2,55.4z M25.5,131.1
			c0,0-20.9-2.1-7.8-22c4.3-5.4,14.6-17.9,38.1-2.9C55.8,106.2,49.4,132.3,25.5,131.1z M65.2,23.4C78,5.9,93.5,13.6,97.9,16.5
			c10.6,8.3-3,33.5-3,33.5c-4.3,1.8-17.4,0.8-17.4,0.8C59.1,46.3,61.3,29.7,65.2,23.4z M71.7,98.3L88,54l6.1-1.4l-17.3,47.6
			L71.7,98.3z"/>
		
			<linearGradient id="SVGID_00000085972578312531704510000012075103438853113737_" gradientUnits="userSpaceOnUse" x1="77.0448" y1="32.1482" x2="97.1923" y2="32.1482">
			<stop  offset="0" style="stop-color:#FEE35F"/>
			<stop  offset="0" style="stop-color:#DDA027"/>
			<stop  offset="0.3198" style="stop-color:#CE9B2B"/>
			<stop  offset="0.6802" style="stop-color:#FEF48E"/>
			<stop  offset="1" style="stop-color:#FFD046"/>
		</linearGradient>
		<path style="fill:url(#SVGID_00000085972578312531704510000012075103438853113737_);" d="M96.9,30.4c2.1-10.8-7.2-15.3-7.2-15.3
			L77,48.6v0.7h13L96.9,30.4z"/>
	</g>
	<g>
		
			<linearGradient id="SVGID_00000172434618173640847240000006317734216377872312_" gradientUnits="userSpaceOnUse" x1="139.1524" y1="54.8541" x2="304.3289" y2="119.4423">
			<stop  offset="0" style="stop-color:#B0B0AF"/>
			<stop  offset="3.983224e-02" style="stop-color:#BEBEBD"/>
			<stop  offset="0.1391" style="stop-color:#E0DFDF"/>
			<stop  offset="0.1915" style="stop-color:#EEEDEE"/>
			<stop  offset="0.1977" style="stop-color:#ECECEC"/>
			<stop  offset="0.3003" style="stop-color:#D6D6D5"/>
			<stop  offset="0.3974" style="stop-color:#CAC9C9"/>
			<stop  offset="0.4826" style="stop-color:#C6C5C5"/>
			<stop  offset="0.6196" style="stop-color:#E9E8E8"/>
			<stop  offset="0.6806" style="stop-color:#FFFFFF"/>
			<stop  offset="0.7737" style="stop-color:#F1F0F0"/>
			<stop  offset="0.8695" style="stop-color:#E1E1E1"/>
			<stop  offset="1" style="stop-color:#FFFFFF"/>
		</linearGradient>
		<path style="fill:url(#SVGID_00000172434618173640847240000006317734216377872312_);" d="M176,55.5h8.2v23.8H196v6.9H176V55.5z"/>
		
			<linearGradient id="SVGID_00000036948171641338220350000002895917109722450848_" gradientUnits="userSpaceOnUse" x1="142.344" y1="46.6919" x2="307.5205" y2="111.2801">
			<stop  offset="0" style="stop-color:#B0B0AF"/>
			<stop  offset="3.983224e-02" style="stop-color:#BEBEBD"/>
			<stop  offset="0.1391" style="stop-color:#E0DFDF"/>
			<stop  offset="0.1915" style="stop-color:#EEEDEE"/>
			<stop  offset="0.1977" style="stop-color:#ECECEC"/>
			<stop  offset="0.3003" style="stop-color:#D6D6D5"/>
			<stop  offset="0.3974" style="stop-color:#CAC9C9"/>
			<stop  offset="0.4826" style="stop-color:#C6C5C5"/>
			<stop  offset="0.6196" style="stop-color:#E9E8E8"/>
			<stop  offset="0.6806" style="stop-color:#FFFFFF"/>
			<stop  offset="0.7737" style="stop-color:#F1F0F0"/>
			<stop  offset="0.8695" style="stop-color:#E1E1E1"/>
			<stop  offset="1" style="stop-color:#FFFFFF"/>
		</linearGradient>
		<path style="fill:url(#SVGID_00000036948171641338220350000002895917109722450848_);" d="M208.3,55.5v30.7h-8.2V55.5H208.3z"/>
		
			<linearGradient id="SVGID_00000026128238125236102470000016950685160694651546_" gradientUnits="userSpaceOnUse" x1="144.9493" y1="40.029" x2="310.1258" y2="104.6172">
			<stop  offset="0" style="stop-color:#B0B0AF"/>
			<stop  offset="3.983224e-02" style="stop-color:#BEBEBD"/>
			<stop  offset="0.1391" style="stop-color:#E0DFDF"/>
			<stop  offset="0.1915" style="stop-color:#EEEDEE"/>
			<stop  offset="0.1977" style="stop-color:#ECECEC"/>
			<stop  offset="0.3003" style="stop-color:#D6D6D5"/>
			<stop  offset="0.3974" style="stop-color:#CAC9C9"/>
			<stop  offset="0.4826" style="stop-color:#C6C5C5"/>
			<stop  offset="0.6196" style="stop-color:#E9E8E8"/>
			<stop  offset="0.6806" style="stop-color:#FFFFFF"/>
			<stop  offset="0.7737" style="stop-color:#F1F0F0"/>
			<stop  offset="0.8695" style="stop-color:#E1E1E1"/>
			<stop  offset="1" style="stop-color:#FFFFFF"/>
		</linearGradient>
		<path style="fill:url(#SVGID_00000026128238125236102470000016950685160694651546_);" d="M214,55.5h19.7v6.7h-11.5v5.7H233v6.7
			h-10.8v11.7H214V55.5z"/>
		
			<linearGradient id="SVGID_00000153677017750265371490000014239186803604073382_" gradientUnits="userSpaceOnUse" x1="148.2588" y1="31.5655" x2="313.4353" y2="96.1537">
			<stop  offset="0" style="stop-color:#B0B0AF"/>
			<stop  offset="3.983224e-02" style="stop-color:#BEBEBD"/>
			<stop  offset="0.1391" style="stop-color:#E0DFDF"/>
			<stop  offset="0.1915" style="stop-color:#EEEDEE"/>
			<stop  offset="0.1977" style="stop-color:#ECECEC"/>
			<stop  offset="0.3003" style="stop-color:#D6D6D5"/>
			<stop  offset="0.3974" style="stop-color:#CAC9C9"/>
			<stop  offset="0.4826" style="stop-color:#C6C5C5"/>
			<stop  offset="0.6196" style="stop-color:#E9E8E8"/>
			<stop  offset="0.6806" style="stop-color:#FFFFFF"/>
			<stop  offset="0.7737" style="stop-color:#F1F0F0"/>
			<stop  offset="0.8695" style="stop-color:#E1E1E1"/>
			<stop  offset="1" style="stop-color:#FFFFFF"/>
		</linearGradient>
		<path style="fill:url(#SVGID_00000153677017750265371490000014239186803604073382_);" d="M258.1,73.8h-11v5.7h12.4v6.7h-20.6V55.5
			h20v6.7H247v4.9h11V73.8z"/>
		
			<linearGradient id="SVGID_00000107546736267999751210000011888195821055473566_" gradientUnits="userSpaceOnUse" x1="152.0156" y1="21.958" x2="317.192" y2="86.5463">
			<stop  offset="0" style="stop-color:#B0B0AF"/>
			<stop  offset="3.983224e-02" style="stop-color:#BEBEBD"/>
			<stop  offset="0.1391" style="stop-color:#E0DFDF"/>
			<stop  offset="0.1915" style="stop-color:#EEEDEE"/>
			<stop  offset="0.1977" style="stop-color:#ECECEC"/>
			<stop  offset="0.3003" style="stop-color:#D6D6D5"/>
			<stop  offset="0.3974" style="stop-color:#CAC9C9"/>
			<stop  offset="0.4826" style="stop-color:#C6C5C5"/>
			<stop  offset="0.6196" style="stop-color:#E9E8E8"/>
			<stop  offset="0.6806" style="stop-color:#FFFFFF"/>
			<stop  offset="0.7737" style="stop-color:#F1F0F0"/>
			<stop  offset="0.8695" style="stop-color:#E1E1E1"/>
			<stop  offset="1" style="stop-color:#FFFFFF"/>
		</linearGradient>
		<path style="fill:url(#SVGID_00000107546736267999751210000011888195821055473566_);" d="M281.2,55.5v30.7H273V55.5H281.2z"/>
		
			<linearGradient id="SVGID_00000077320505651867741090000009558199055588380316_" gradientUnits="userSpaceOnUse" x1="155.065" y1="14.1595" x2="320.2415" y2="78.7478">
			<stop  offset="0" style="stop-color:#B0B0AF"/>
			<stop  offset="3.983224e-02" style="stop-color:#BEBEBD"/>
			<stop  offset="0.1391" style="stop-color:#E0DFDF"/>
			<stop  offset="0.1915" style="stop-color:#EEEDEE"/>
			<stop  offset="0.1977" style="stop-color:#ECECEC"/>
			<stop  offset="0.3003" style="stop-color:#D6D6D5"/>
			<stop  offset="0.3974" style="stop-color:#CAC9C9"/>
			<stop  offset="0.4826" style="stop-color:#C6C5C5"/>
			<stop  offset="0.6196" style="stop-color:#E9E8E8"/>
			<stop  offset="0.6806" style="stop-color:#FFFFFF"/>
			<stop  offset="0.7737" style="stop-color:#F1F0F0"/>
			<stop  offset="0.8695" style="stop-color:#E1E1E1"/>
			<stop  offset="1" style="stop-color:#FFFFFF"/>
		</linearGradient>
		<path style="fill:url(#SVGID_00000077320505651867741090000009558199055588380316_);" d="M286.9,86.2V55.5h9.7l4.9,9.4
			c1.7,3.1,3.5,7.2,4.8,10.8h0.1c-0.5-4.1-0.6-8.3-0.6-12.9v-7.3h7.5v30.7h-8.7L299.4,76c-1.7-3.2-3.7-7.4-5.2-11.1h-0.2
			c0.2,4.1,0.3,8.8,0.3,13.7v7.6H286.9z"/>
	</g>
</g>
</svg>
