<?xml version="1.0" encoding="utf-8"?>
<!-- Generator: Adobe Illustrator 27.9.0, SVG Export Plug-In . SVG Version: 6.00 Build 0)  -->
<svg version="1.1" id="Layer_1" xmlns="http://www.w3.org/2000/svg" xmlns:xlink="http://www.w3.org/1999/xlink" x="0px" y="0px"
	 viewBox="0 0 558.5 192" style="enable-background:new 0 0 558.5 192;" xml:space="preserve">
<style type="text/css">
	.st0{fill:#FFFFFF;}
	.st1{fill:#261D11;}
	.st2{fill:#281F12;}
	.st3{fill:url(#SVGID_1_);}
	.st4{fill:url(#SVGID_00000158721497554895646370000013142477841027958690_);}
	.st5{fill:url(#SVGID_00000065065762411040909260000005050742878468114108_);}
	.st6{fill:url(#SVGID_00000085225225807800543540000004161848225751611042_);}
	.st7{fill:url(#SVGID_00000133500556274234546560000005805200473543353272_);}
	.st8{fill:url(#SVGID_00000156579298994683471570000017061731372410746282_);}
	.st9{fill:url(#SVGID_00000036245060926204474490000013010768834422466730_);}
	.st10{fill:url(#SVGID_00000101819240037878803890000016795183575818136465_);}
	.st11{fill:url(#SVGID_00000059295207153326680620000012292763846745382025_);}
	.st12{fill:url(#SVGID_00000175284633799678558760000010685771426766841012_);}
	.st13{fill:url(#SVGID_00000085973272846417281820000006184212049441867188_);}
	.st14{fill:url(#SVGID_00000062165412235558686040000006720867782595329957_);}
	.st15{fill:url(#SVGID_00000005967536046694858040000012119181583821279641_);}
	.st16{fill:url(#SVGID_00000178910517263860840320000004286479175546277012_);}
	.st17{fill:#15100A;}
	.st18{fill:url(#SVGID_00000016039864575972998460000003987251233694497419_);}
	.st19{fill:url(#SVGID_00000163057446766031795090000010519250659044663231_);}
	.st20{fill:url(#SVGID_00000075848355783322352060000013635785559743203997_);}
	.st21{fill:url(#SVGID_00000135656390717045953090000013045183486870718123_);}
	.st22{fill:url(#SVGID_00000152244562484860572200000002268392583973643944_);}
	.st23{fill:url(#SVGID_00000000191665000990315230000012101885590157426563_);}
	.st24{fill:url(#SVGID_00000116206522785911921980000008207696360356081567_);}
	.st25{fill:url(#SVGID_00000068677836924835906680000002829742129126615230_);}
	.st26{fill:url(#SVGID_00000038395225021056305960000012958909158135747485_);}
	.st27{fill:url(#SVGID_00000040549337251890403120000005958757810938446482_);}
	.st28{fill:url(#SVGID_00000078753829061049518580000006240430353211075517_);}
	.st29{fill:url(#SVGID_00000176019024399820029430000008528947672012782773_);}
	.st30{fill:url(#SVGID_00000021090716098654714730000007121757776115066774_);}
</style>
<g>
	<path class="st0" d="M177.6,130.5c-4.5,10.6-10.9,20-19,28.2c-8.1,8.1-17.6,14.5-28.2,19c-10.9,4.6-22.6,7-34.5,7s-23.6-2.3-34.5-7
		c-10.6-4.5-20-10.9-28.2-19c-8.1-8.1-14.5-17.6-19-28.2c-4.6-10.9-7-22.6-7-34.5s2.3-23.6,7-34.5c4.5-10.6,10.9-20,19-28.2
		c8.1-8.1,17.6-14.5,28.2-19c10.9-4.6,22.6-7,34.5-7s23.6,2.3,34.5,7c10.6,4.5,20,10.9,28.2,19c8.1,8.1,14.5,17.6,19,28.2
		c4.6,10.9,7,22.6,7,34.5S182.2,119.6,177.6,130.5z"/>
	<g>
		<path class="st1" d="M357.9,130.8c-1.7-0.8-3.2-1.6-4.4-2.3c-1.1-0.7-2.3-1.6-3.5-2.6c-1.1-0.9-1.8-2-2.4-3.2
			c-0.5-1.2-0.8-2.6-0.8-4.1c0-3.9,1.7-5.4,2.2-5.9c1.5-1.3,3.8-2,6.8-2c1.7,0,3.1,0.3,4.5,1c1.4,0.7,2.5,1.6,3.4,2.7
			c1,1.2,1.7,2.5,2.3,3.9c0.6,1.4,1,2.8,1.3,4.5c0.1,0.9,0.5,1.6,1.2,2c0.3,0.2,0.7,0.3,1.1,0.3c0.5,0,1-0.2,1.4-0.5
			c0.6-0.4,0.9-1.1,1-1.9c1-6.7,1-8.7,1-9.7c-0.1-2.1-1-5-5.2-6.7c-2.9-1.2-6.5-1.7-11-1.7c-5.9,0-11,1.6-15,4.7
			c-4.2,3.2-6.3,7.6-6.3,12.9c0,4.8,1.2,8.8,3.7,11.8c2.4,3,6.3,5.7,11.9,8.3c4.9,2.2,8.4,4.3,10.4,6.1c1.8,1.6,2.6,3.6,2.6,6.1
			c0,2.7-0.9,4.9-2.9,6.6c-2,1.7-4.9,2.6-8.6,2.6c-4.1,0-7.1-1.2-9.3-3.8c-2.3-2.6-3.4-6-3.4-10.4c0-0.9-0.4-1.6-1.2-2
			c-0.3-0.2-0.7-0.3-1.1-0.3c-0.3,0-0.6,0.1-1,0.2c-0.7,0.3-1.2,0.8-1.4,1.5c-0.5,1.5-0.9,3.5-1.3,5.8c-0.4,2.5-0.5,4.4-0.3,6.1
			c0,0.1,0,0.3,0.1,0.4l0.5,2.7l-2.5-0.3c-1.6-0.2-2.8-0.6-3.5-1.2c-0.5-0.4-1.4-1.5-2.7-4.4c-7.2-17.1-8.6-20.3-8.8-20.8
			c-2.9-6.9-6.7-17-11.4-29.8l-0.1-0.2c-0.6-1.3-1.3-2.4-2.6-2.4c-0.7,0-1.4,0.3-1.9,0.8c-0.2,0.3-0.5,0.7-0.9,1.4l-0.7,1.7
			c0,0-0.8,1.8-1,2.5c-0.3,0.7-0.6,1.3-0.8,1.8l-4,9.5c-0.4,0.9-1,2.3-1.8,4.3l-2.6,6.2c-0.9,2.1-1.8,4.2-2.7,6.3
			c-4.2,10-7.3,16.7-9.1,20c-0.4,0.8-0.9,1.4-1.3,1.9c-0.6,0.7-1,1-1.2,1.2l-0.1,0.1l-0.1,0.1c-0.2,0.1-0.5,0.3-0.9,0.4
			c-0.5,0.2-0.9,0.3-1.2,0.4l-2.8,0.5l0.4-2.7l0,0c0.2-1.1,0.3-2.4,0.3-4c0-1.4,0-3.6-0.1-6.4c0-1.4-1-2.4-2.4-2.4l-0.2,0
			c-1.3,0-2.3,0.9-2.4,2.3c-0.5,2.8-1.3,5.1-2.3,6.9c-1,1.7-2.6,3-4.8,4c-2.3,1-5.2,1.6-8.9,1.6c-3.3,0-6.3-0.5-8.9-1.5
			c-2.6-1-4.9-2.5-6.9-4.5c-2-2-3.6-4.6-4.7-7.9c-1.2-3.4-1.8-7.3-1.8-11.8c-0.1-8.5,1.7-15,5.2-19.6c3.5-4.5,8.5-6.7,15.5-6.7
			c2.3,0,4.5,0.2,6.4,0.7c1.9,0.5,3.6,1.2,5.2,2.2c1.5,1,2.7,2.2,3.6,3.9c0.9,1.7,1.5,3.7,1.8,6.1c0,0.3,0.2,1.9,2.2,2.2l0.4,0
			c1.3,0,2.2-0.8,2.5-2l0-0.2c0.1-1,0.2-2.6,0.4-4.7c0.2-2.3,0.3-3.9,0.4-5.1c0-1.9-0.4-3.4-1.2-4.5c-0.8-1.1-2-2-3.7-2.6
			c-4.5-1.7-10.2-2.5-17-2.5c-6.9,0-13,1.3-18.4,4c-5.4,2.7-9.7,6.6-12.8,11.8c-3.1,5.2-4.7,11.3-4.6,18.2c0,6.5,1.6,12.2,4.7,17
			c3.1,4.8,7.4,8.4,12.9,10.9c5.4,2.4,11.7,3.6,18.8,3.6c6.6,0,11.7-0.8,15.5-2.5l0.6-0.3c0.7-0.3,1.2-0.6,1.6-0.9l1.8-1.1l0.8,1.9
			c0.1,0.3,0.2,0.5,0.4,0.6c0.4,0.5,1,0.7,1.7,0.7c1,0,2.5,0,4.6-0.1c2-0.1,3.4-0.1,4.3-0.1c2,0,5,0.1,9,0.3c1.4,0,2.4-1,2.4-2.5
			c0-1.4-0.9-2.4-2.3-2.5c-0.4-0.1-0.8-0.1-1.1-0.1l-1.8-0.3l0.2-1.8c0-0.3,0.1-0.7,0.3-1.3c0.9-2.9,2.4-7.1,4.5-12.5l0.5-1.2h14.7
			l2.4,6c1.5,3.7,2.5,6.4,3.1,8.1c0.1,0.3,0.2,0.6,0.3,0.9l0.6,2.2l-2.2,0.2c-0.9,0.1-1.6,0.6-1.9,1.5c-0.2,0.6-0.2,1.4,0,2
			c0.4,0.9,1.2,1.4,2.1,1.4l0.2,0c3-0.2,5.8-0.3,8.2-0.3c3.8,0,8.1,0.1,12.9,0.3c0.7,0,1.3-0.3,1.7-0.7c0.1-0.1,0.3-0.3,0.4-0.6
			l0.9-2.1l1.8,1.4c0.3,0.2,0.6,0.4,0.9,0.6c3.3,2,8.2,2.9,14.9,2.9c4.1,0,7.9-0.7,11.3-2.2c3.5-1.5,6.3-3.7,8.5-6.5
			c2.2-2.9,3.3-6.2,3.3-9.9c0-4.7-1.3-8.6-3.9-11.6C369.2,136.8,364.7,133.9,357.9,130.8z M298.4,139.4l-4.2,0l1-2.5
			c0.6-1.6,1.3-3.4,2.1-5.4l1.7-4.3l1.7,4.3c0.7,1.7,1.4,3.5,2.1,5.3l1,2.5L298.4,139.4z"/>
		<path class="st1" d="M404.1,163.5c-0.1,0-0.3,0-0.4,0l-1,2.1l-1.6-3.4c-0.5-1.1-0.8-3.6-0.9-7.2c-0.1-2.7-0.2-8.4-0.2-16.8
			c0-8,0.1-14.5,0.2-19.2c0.1-4,0.4-5.9,0.7-6.7l0.3-0.8l0.8-0.3c0.5-0.2,1.2-0.4,2.1-0.5c0.7,0,1.2-0.3,1.6-0.8
			c0.3-0.4,0.5-0.8,0.5-1.2c0-0.3,0-0.7-0.1-1c-0.1-0.4-0.3-0.8-0.7-1.2c-0.4-0.4-1-0.6-1.5-0.6l-0.1,0c-3.3,0.2-6.8,0.3-10.6,0.3
			c-3.6,0-7.1-0.1-10.3-0.3l-0.2,0c-0.9,0-1.7,0.5-2.1,1.3c-0.4,0.7-0.4,1.6,0,2.3c0.4,0.7,1.1,1.2,2.1,1.3c0.8,0.1,1.4,0.2,1.9,0.4
			c0.4,0.1,1.1,0.4,1.4,1l0.1,0.1l0.1,0.2c0.3,0.8,0.5,3.2,0.7,6.6c0.1,3,0.2,9.7,0.2,19.8c0,8-0.1,13.4-0.2,16.3c0,0.1,0,0.6,0,0.6
			c-0.2,3.5-0.4,5.2-0.7,6l-0.2,0.9l-0.9,0.3c-0.6,0.2-1.3,0.4-2.4,0.6c-0.9,0.1-2,0.7-2.1,2.3c-0.1,0.7,0.2,1.4,0.6,1.9
			c0.4,0.5,1,0.7,1.6,0.7l0.2,0c3.1-0.2,6.5-0.3,10.1-0.3c3.4,0,7.1,0.1,10.8,0.3l0.1,0c0.7,0,1.3-0.3,1.7-0.7
			c0.5-0.5,0.7-1.1,0.6-1.9C406.3,164.5,405.4,163.6,404.1,163.5z"/>
		<path class="st1" d="M478.2,105.8c-1.9,0.1-3.2,0.1-4,0.2c-1.8,0.1-2.9,0.1-3.1,0.1c-2.5,0-5.5-0.1-8.8-0.3l-0.1,0
			c-1.4,0-2.4,1-2.4,2.4c0,1.3,0.9,2.3,2.3,2.4c1.6,0.2,2.5,0.6,2.9,0.8l0.7,0.3l0.2,0.7c0.2,0.7,0.6,2.1,0.7,5
			c0.2,5.4,0.4,13.8,0.4,25.1l0,4.1L464,144c-3.9-3.4-8.9-7.8-14.7-13.2c-9.1-8.3-17.3-16.3-24.2-23.8c-1.2-1.3-2.2-2.1-3.2-2.1
			l-0.2,0l-0.2,0c-0.6,0.1-1.9,0.3-1.9,3.8c0.1,1.6,0.1,7.2,0.1,16.8c0,13.2-0.3,24.5-1,33.5c-0.1,1.3-0.3,2.4-0.6,3l-0.3,0.6
			l-0.6,0.3c-0.4,0.2-1,0.4-1.9,0.6c-1.3,0.1-2.1,1.1-2.1,2.4c0,1.5,1,2.5,2.4,2.5l4.1-0.1c1.4-0.1,2.5-0.1,3.3-0.1
			c2,0,5.4,0.1,10.5,0.3c0.7,0,1.3-0.3,1.7-0.7c0.4-0.5,0.7-1.1,0.6-1.8l0-0.2c-0.3-2-1.9-2.2-2.2-2.2c-2.8-0.3-4-1-4.5-1.5
			c-0.7-0.8-1.2-2-1.2-3.4c-0.2-4.6-0.4-13.4-0.7-26.3l-0.1-4.3l3.2,2.9c3.5,3.2,8.1,7.4,13.7,12.6c12.4,11.5,20.8,19.6,25,23.9
			c0.2,0.2,0.3,0.3,0.6,0.5l0.1,0.1l0.1,0.1c0.2,0.2,0.3,0.4,0.7,0.6c0.1,0.1,0.2,0.2,0.3,0.3l0.4,0.3l0.7,0.2h0.3l0.6,0l0.2-0.1
			l0.1,0c1.2-0.4,1.4-2.1,1.4-3.8c0-12.1,0-19.3,0.1-21.5c0.1-9.5,0.4-18.9,0.8-27.9c0.1-2.5,0.5-3.7,0.9-4.4
			c0.5-0.9,1.6-1.2,2.2-1.3c1.1-0.1,2-1,2.1-2.3c0.1-0.7-0.2-1.4-0.6-1.8C479.5,106,478.9,105.8,478.2,105.8z"/>
		<path class="st1" d="M553,126.4c-0.9-3-2.3-5.9-4.2-8.5c-1.9-2.6-4.1-5-6.7-7c-2.6-2-5.8-3.6-9.3-4.7c-3.6-1.1-7.4-1.7-11.5-1.7
			c-6.9,0-13.1,1.4-18.5,4.2c-5.4,2.8-9.7,6.8-12.7,11.8c-3,5-4.5,10.8-4.5,17.2c0,5,0.9,9.7,2.6,13.7c1.8,4.1,4.2,7.5,7.4,10.2
			c3.1,2.6,6.8,4.7,11,6.1c4.2,1.4,8.7,2.1,13.6,2.1c4.8,0,9.3-0.9,13.5-2.6c4.2-1.7,7.9-4.1,10.9-7.1c3-3,5.5-6.6,7.2-10.9
			c1.7-4.2,2.6-8.8,2.6-13.6C554.4,132.5,553.9,129.4,553,126.4z M537.9,151.6c-1.5,3.6-3.7,6.3-6.8,8.4c-3,2.1-6.5,3.1-10.7,3.1
			c-6.3,0-11.2-2.3-15-7.1c-3.8-4.8-5.7-11.3-5.7-19.1c0-7.9,1.6-14.2,4.8-18.9c3-4.4,7.5-6.8,13.4-7l0.7,0h0c7,0,12.3,2.7,16.1,8.2
			c3.7,5.2,5.5,11.8,5.5,19.8C540.2,143.8,539.4,148,537.9,151.6z"/>
	</g>
	<path class="st2" d="M273.2,41.1c-2.1,0-4-0.8-5.5-2.3c-1.6-1.6-2.4-3.5-2.4-5.6c0-2.1,0.8-4,2.4-5.6c1.5-1.5,3.4-2.3,5.5-2.3
		c2.1,0,4,0.8,5.6,2.4c1.6,1.5,2.4,3.4,2.4,5.5c0,2.1-0.8,4-2.4,5.6C277.2,40.3,275.3,41.1,273.2,41.1z"/>
	<g>
		<linearGradient id="SVGID_1_" gradientUnits="userSpaceOnUse" x1="238.279" y1="24.6208" x2="238.279" y2="87.363">
			<stop  offset="0" style="stop-color:#020202"/>
			<stop  offset="0.4916" style="stop-color:#775B34"/>
			<stop  offset="1" style="stop-color:#010101"/>
		</linearGradient>
		<path class="st3" d="M261.4,73c0-2.6,0.1-4.3,0.1-5.2c0-0.9-0.4-1.7-1.2-2.2c-0.4-0.2-0.8-0.3-1.2-0.3s-0.8,0.1-1.2,0.3
			c-0.7,0.4-1.1,1.1-1.2,2c-0.8,3.9-2,6.9-3.7,8.9c-1.6,1.9-3.9,2.9-7.2,3.1l-2.8,0.1l-2.7,0c-1.4,0-2.5-0.2-3.3-0.4l-1-0.3l-0.3-1
			c-0.3-1-0.4-2.4-0.4-4.2c0-0.9,0-2.6-0.1-4.9c0-2.3-0.1-4.7-0.1-6.9c0-2.3,0-4.4,0-6.5c0-8.3,0.1-14.3,0.2-17.6
			c0.1-4.1,0.5-6,0.7-6.8l0.3-0.8l0.8-0.3c0.5-0.2,1.2-0.4,2-0.4c0.7,0,1.2-0.3,1.6-0.8c0.3-0.4,0.5-0.8,0.5-1.2c0-0.3,0-0.7-0.1-1
			c-0.1-0.4-0.3-0.8-0.7-1.2c-0.4-0.4-1-0.6-1.5-0.6l-0.1,0c-3.3,0.2-6.8,0.3-10.6,0.3c-3.2,0-6.8-0.1-10.9-0.3
			c-0.7,0-1.4,0.3-1.8,0.8c-0.4,0.5-0.7,1.1-0.6,1.8c0.1,1.3,1,2.2,2.4,2.3c0.9,0.1,1.6,0.2,2.2,0.4c0.4,0.1,0.8,0.3,1,0.5
			c0.2,0.2,0.4,0.3,0.5,0.4l0.3,0.3l0.1,0.4c0,0.1,0.1,0.4,0.2,0.7c0.1,0.8,0.2,1.6,0.2,2.2c0,0.8,0.1,1.9,0.1,3.4
			c0.1,3.9,0.2,9.5,0.2,16.6c0,9-0.1,15.8-0.2,20.2c-0.1,2.5-0.3,4.4-0.6,5.5c-0.1,0.3-0.2,0.6-0.3,0.7l-0.3,0.7l-0.7,0.3
			c-0.6,0.2-1.4,0.4-2.6,0.5c-1.2,0.1-2.1,1-2.2,2.3c-0.1,0.7,0.2,1.4,0.6,1.9c0.5,0.5,1.1,0.7,1.9,0.7c4.1-0.2,7.7-0.3,10.5-0.3
			c4.1,0,8.6,0.1,13.4,0.2c4.9,0.1,8.8,0.2,11.8,0.2c3.5,0,5.8-1.1,6.9-3.1l1.1-2.1l-0.4-0.2c0.1-0.8,0.2-1.8,0.2-2.9
			C261.4,77.7,261.4,75.6,261.4,73z"/>
		
			<linearGradient id="SVGID_00000029734081642236377650000016177297792183213234_" gradientUnits="userSpaceOnUse" x1="274.1315" y1="44.5203" x2="274.1315" y2="87.2721">
			<stop  offset="0" style="stop-color:#020202"/>
			<stop  offset="0.4916" style="stop-color:#775B34"/>
			<stop  offset="1" style="stop-color:#010101"/>
		</linearGradient>
		<path style="fill:url(#SVGID_00000029734081642236377650000016177297792183213234_);" d="M283.8,82.4c-0.7-0.1-1.2-0.2-1.4-0.3
			l-1.1-0.2l-0.3-1.1c-0.2-0.6-0.3-1.3-0.3-2.2c-0.1-1.6-0.2-3.9-0.2-7c0-3.2,0-7.1,0.1-11.9c0.1-4.8,0.1-8.3,0.1-10.4
			c0-1.4-0.2-2.4-0.5-3.1c-0.3-0.6-1.1-1.6-3-1.6c-0.9,0-1.9,0.1-3.1,0.3c-1.1,0.2-2.7,0.5-4.7,1c-1.9,0.4-3.5,0.8-5,1
			c-0.6,0.1-1.1,0.3-1.5,0.8c-0.3,0.4-0.5,1-0.5,1.5c0,0.3,0,0.5,0.1,0.8c0.1,0.5,0.4,1,0.8,1.3c0.4,0.4,1,0.5,1.5,0.5h2.4l0.4,1.2
			c0.3,0.9,0.5,2.3,0.6,4c0.4,8.1,0.3,15.4-0.1,21.6c-0.1,1.3-0.3,2.1-0.4,2.5l-0.3,1l-1.4,0.3c-0.8,0.1-1.2,0.6-1.5,0.9l-0.6-0.2
			l0.1,1.9c0,0.4,0.1,1.1,0.6,1.6c0.4,0.4,1,0.7,1.7,0.7c0.5,0,1.9,0,4.1-0.1c2.2-0.1,3.5-0.1,4-0.1c0.6,0,2,0,4.2,0.1
			c2.3,0.1,4,0.1,5.1,0.1c0.7,0,1.3-0.3,1.7-0.7c0.5-0.5,0.7-1.1,0.6-1.9C285.9,83.4,285.1,82.5,283.8,82.4z"/>
		
			<linearGradient id="SVGID_00000148623122944892685890000014091859956341899158_" gradientUnits="userSpaceOnUse" x1="305.2635" y1="20.5138" x2="305.2635" y2="87.2721">
			<stop  offset="0" style="stop-color:#020202"/>
			<stop  offset="0.4916" style="stop-color:#775B34"/>
			<stop  offset="1" style="stop-color:#010101"/>
		</linearGradient>
		<path style="fill:url(#SVGID_00000148623122944892685890000014091859956341899158_);" d="M319.6,47l0.6-3.1l-3,1
			c-0.7,0.2-1.7,0.4-3.1,0.4c-1.7,0-3.5,0-5.2,0l-1.9,0v-3c0-4.5,0.3-7.9,1-10.2c0.9-3.3,2.4-4.8,4.5-4.8c0.8,0,2.1,0.2,3.4,2
			c1.2,1.6,1.9,3.4,2.4,5.6c0.2,1.2,1.1,2,2.2,2l0.3,0c1.1-0.1,1.9-0.8,2.2-1.8l0-0.1l0-0.1c0.5-3.3,0.8-6,0.9-8.3
			c0-2.1-0.6-3.7-2-4.8c-1.2-0.9-3.1-1.3-5.8-1.3c-2.8,0-5.3,0.5-7.4,1.6c-2.1,1.1-3.8,2.1-5.1,3.2c-3.9,3.3-6.5,7.8-7.8,13.3
			c-0.4,1.7-0.8,3.5-1,5.3l-0.2,1.6l-1.6,0c-1.5,0-2,0.1-2.3,0.2c-1.3,0.3-2,1.6-3.2,4.2l-1.2,2.9l3.1-0.3c0.6-0.1,1.7-0.1,3.2-0.1
			l1.9,0l0,1.9c0.1,6.2,0,13.9-0.1,22.7c0,1.9-0.1,3.2-0.4,4.1l-0.3,1.1l-1.3,0.3c-1.1,0.2-1.9,1.1-2,2.3c-0.1,0.7,0.2,1.4,0.6,1.8
			c0.4,0.5,1,0.7,1.7,0.7c0.5,0,2,0,4.3-0.1c2.2-0.1,3.6-0.1,4.1-0.1c0.4,0,1.8,0,4.2,0.1c2.5,0.1,4.5,0.1,6,0.1
			c0.7,0,1.3-0.3,1.7-0.7c0.5-0.5,0.7-1.1,0.6-1.9c-0.1-1.3-1-2.2-2.3-2.3c-1.2-0.1-2.2-0.3-2.9-0.6l-0.9-0.3l-0.3-0.9
			c-0.2-0.7-0.3-1.7-0.4-2.9c0-0.3-0.1-2.3-0.1-3.1c0-0.8,0-1.5,0-2.1c0-1.6,0-4.3,0-7.9c0-3.7,0-6.4,0-8.2c0-0.5,0-4.1,0-4.1l4.7,0
			c2.3,0,3.8,0,4.4,0h0.3l0.3-0.1c1.3-0.4,1.9-1.9,2.2-2.6C319.2,48.8,319.5,47.9,319.6,47z"/>
		
			<linearGradient id="SVGID_00000042005263233018390100000009613986172982745225_" gradientUnits="userSpaceOnUse" x1="336.9118" y1="44.0633" x2="336.9118" y2="88.1853">
			<stop  offset="0" style="stop-color:#020202"/>
			<stop  offset="0.4916" style="stop-color:#775B34"/>
			<stop  offset="1" style="stop-color:#010101"/>
		</linearGradient>
		<path style="fill:url(#SVGID_00000042005263233018390100000009613986172982745225_);" d="M353.3,75.6c-0.6,0-1.1,0.2-1.7,0.7
			c-2.3,2.4-5.3,3.6-8.9,3.6c-3.6,0-6.3-1-8.5-3.2c-2.1-2.1-3.2-5.5-3.3-10l0-2.2l1.8,0c1.7,0,3.5,0,5.3,0c1.6,0,3.8,0,6.7,0
			c2.9,0,4.7,0,5.3,0c1.1,0,2.5-0.1,3.4-1.1c0.8-0.9,0.9-2.2,0.9-3.3c-0.1-4.2-1.6-8-4.6-11.2c-3-3.3-6.9-4.9-11.4-4.9
			c-6.1,0-11.2,2.3-14.9,6.7c-3.7,4.4-5.5,9.9-5.4,16.5c0.1,7,2.2,12.3,6.1,15.8c3.9,3.4,8.8,5.2,14.8,5.2c3.9,0,7.3-0.8,10.1-2.4
			c2.9-1.6,5-3.9,6.4-6.8c0.5-1,0.2-2.2-0.7-2.9C354.3,75.7,353.8,75.6,353.3,75.6z M332,56.3c1.2-4.2,3.1-6.2,6.1-6.2
			c1,0,1.7,0.3,2.4,0.8c0.7,0.6,1.2,1.5,1.6,2.5c0.3,1.1,0.6,2.1,0.7,3l0.3,2.1l-2.1,0c-1.5,0-2.8,0-3.9,0c-0.9,0-2,0-3.3,0l-2.4,0
			L332,56.3z"/>
		
			<linearGradient id="SVGID_00000159455299330565882670000005076933139913403779_" gradientUnits="userSpaceOnUse" x1="430.8103" y1="44.0633" x2="430.8103" y2="87.273">
			<stop  offset="0" style="stop-color:#020202"/>
			<stop  offset="0.4916" style="stop-color:#775B34"/>
			<stop  offset="1" style="stop-color:#010101"/>
		</linearGradient>
		<path style="fill:url(#SVGID_00000159455299330565882670000005076933139913403779_);" d="M453.4,82.4c-0.8-0.1-1.3-0.3-1.6-0.3
			l-0.8-0.2l-0.3-0.8c-0.2-0.5-0.3-1.1-0.3-2c-0.1-1.2-0.1-8.1-0.1-19.9c0-5.2-1.4-9.1-4.1-11.5c-2.6-2.3-6.1-3.5-10.4-3.5
			c-3.2,0-6.2,0.8-8.8,2.3l-2.2,1.4l-0.9-1.7c-0.4-0.7-1.2-1.5-3-1.5c-0.9,0-1.9,0.1-3.1,0.3c-1.1,0.2-2.7,0.5-4.7,1
			c-1.9,0.4-3.5,0.8-5,1c-0.6,0.1-1.1,0.3-1.5,0.8c-0.3,0.4-0.5,1-0.5,1.5c0,0.3,0,0.5,0.1,0.8c0.1,0.5,0.4,1,0.8,1.3
			c0.4,0.4,1,0.5,1.5,0.5h2.4l0.4,1.2c0.2,0.6,0.5,1.8,0.6,3.9c0,0.2,0,0.5,0,0.9c0,0.4,0,0.8,0,1.4c0,0.6,0,1.1,0,1.7
			c0.1,2.5,0.1,4.6,0.1,6.2c0,1.5,0,3.7-0.1,6.6c-0.1,2.4-0.1,4-0.2,4.8c-0.1,1.3-0.3,2.1-0.4,2.5l-0.4,1l-1.3,0.3
			c-0.8,0.1-1.4,0.7-1.7,1.5l-0.4,1l0.4,1c0.1,0.3,0.3,0.5,0.5,0.8c0.4,0.4,1,0.7,1.6,0.7c0.5,0,1.9,0,4.2-0.1
			c2.2-0.1,3.5-0.1,4-0.1c0.6,0,2,0,4.2,0.1c2.3,0.1,4,0.1,5.1,0.1c1.4,0,2.4-1,2.4-2.5c0-1.3-0.9-2.3-2.3-2.5
			c-0.8-0.1-1.3-0.2-1.6-0.3l-1.2-0.3l-0.2-1.2c-0.1-0.4-0.1-1-0.2-1.9c-0.3-5.4-0.4-12.9-0.1-22.1l0-0.8l0.6-0.5
			c0.6-0.5,1.3-1,2.1-1.4c1.3-0.7,2.8-1.1,4.5-1.1c2.3,0,3.8,0.6,4.5,1.8c0.9,1.4,1.4,3.6,1.5,6.3c0.3,6.6,0.3,12.8,0,18.3
			c0,0.7-0.1,1.3-0.2,1.8l-0.2,1.2l-1.2,0.3c-1.1,0.2-1.8,1.2-1.8,2.4c0,0.7,0.2,1.4,0.6,1.8c0.4,0.4,1,0.7,1.6,0.7l0.2,0
			c2.3-0.2,4.9-0.3,7.8-0.3c0.7,0,2,0,4,0.1c2.1,0.1,3.7,0.1,4.9,0.1c0.7,0,1.3-0.3,1.7-0.7c0.5-0.5,0.7-1.1,0.6-1.9
			C455.5,83.4,454.7,82.5,453.4,82.4z"/>
		
			<linearGradient id="SVGID_00000070814042544657751360000007245704395450652346_" gradientUnits="userSpaceOnUse" x1="391.6465" y1="24.6208" x2="391.6465" y2="87.273">
			<stop  offset="0" style="stop-color:#020202"/>
			<stop  offset="0.4916" style="stop-color:#775B34"/>
			<stop  offset="1" style="stop-color:#010101"/>
		</linearGradient>
		<path style="fill:url(#SVGID_00000070814042544657751360000007245704395450652346_);" d="M402.3,82.4c-0.1,0-0.3,0-0.4,0l-1,2.1
			l-1.6-3.4c-0.5-1.1-0.8-3.6-0.9-7.2c-0.1-2.7-0.2-8.4-0.2-16.8c0-8,0.1-14.5,0.2-19.2c0.1-4,0.4-5.9,0.7-6.7l0.3-0.8l0.8-0.3
			c0.5-0.2,1.2-0.4,2.1-0.5c0.7,0,1.2-0.3,1.6-0.8c0.3-0.4,0.5-0.8,0.5-1.2c0-0.3,0-0.7-0.1-1c-0.1-0.4-0.3-0.8-0.7-1.2
			c-0.4-0.4-1-0.6-1.5-0.6l-0.1,0c-3.3,0.2-6.8,0.3-10.6,0.3c-3.6,0-7.1-0.1-10.3-0.3l-0.2,0c-0.9,0-1.7,0.5-2.1,1.3
			c-0.4,0.7-0.4,1.6,0,2.3c0.4,0.7,1.1,1.2,2.1,1.3c0.8,0.1,1.4,0.2,1.9,0.4c0.4,0.1,1.1,0.4,1.4,1l0.1,0.1l0.1,0.2
			c0.3,0.8,0.5,3.2,0.7,6.6c0.1,3,0.2,9.7,0.2,19.8c0,8-0.1,13.4-0.2,16.3c0,0.1,0,0.6,0,0.6c-0.2,3.5-0.4,5.2-0.7,6l-0.2,0.9
			l-0.9,0.3c-0.6,0.2-1.3,0.4-2.4,0.6c-0.9,0.1-2,0.7-2.1,2.3c-0.1,0.7,0.2,1.4,0.6,1.9c0.4,0.5,1,0.7,1.6,0.7l0.2,0
			c3.1-0.2,6.5-0.3,10.1-0.3c3.4,0,7.1,0.1,11,0.3c0.7,0,1.3-0.3,1.7-0.7c0.2-0.2,0.3-0.4,0.4-0.7l0.4-0.9l-0.4-1
			C404.1,83,403.3,82.4,402.3,82.4z"/>
	</g>
	<g>
		
			<linearGradient id="SVGID_00000155128751424243263080000005831029348288624010_" gradientUnits="userSpaceOnUse" x1="54.7052" y1="-91.5392" x2="195.9187" y2="151.6915">
			<stop  offset="0" style="stop-color:#F3921D"/>
			<stop  offset="1" style="stop-color:#E70E3C"/>
		</linearGradient>
		<path style="fill:url(#SVGID_00000155128751424243263080000005831029348288624010_);" d="M144.4,27.6
			c-10.8-7.7-23.6-12.9-37.4-14.7l0,21c8.1,1.4,15.7,4.5,22.4,8.7L144.4,27.6z"/>
		
			<linearGradient id="SVGID_00000074409096789478432030000017827445363333622912_" gradientUnits="userSpaceOnUse" x1="-35.2372" y1="-39.321" x2="105.9762" y2="203.9098">
			<stop  offset="0" style="stop-color:#F3921D"/>
			<stop  offset="1" style="stop-color:#E70E3C"/>
		</linearGradient>
		<path style="fill:url(#SVGID_00000074409096789478432030000017827445363333622912_);" d="M13.2,81.9h21.2c1.8-8,5.2-15.5,9.8-22
			L29.3,45C21.2,55.6,15.6,68.1,13.2,81.9z"/>
		
			<linearGradient id="SVGID_00000124884459425655825470000000360104718854679722_" gradientUnits="userSpaceOnUse" x1="13.5785" y1="-67.6621" x2="154.7919" y2="175.5687">
			<stop  offset="0" style="stop-color:#F3921D"/>
			<stop  offset="1" style="stop-color:#E70E3C"/>
		</linearGradient>
		<path style="fill:url(#SVGID_00000124884459425655825470000000360104718854679722_);" d="M61.8,43c6.3-4.1,13.4-7,21-8.7V13.2
			c-13.3,2.1-25.5,7.3-36,14.8L61.8,43z"/>
		
			<linearGradient id="SVGID_00000098207591370453772460000007142421970384192927_" gradientUnits="userSpaceOnUse" x1="-47.8419" y1="-32.003" x2="93.3715" y2="211.2278">
			<stop  offset="0" style="stop-color:#F3921D"/>
			<stop  offset="1" style="stop-color:#E70E3C"/>
		</linearGradient>
		<path style="fill:url(#SVGID_00000098207591370453772460000007142421970384192927_);" d="M44.4,162.2c11,8.5,24.1,14.4,38.4,16.7
			v-21.2c-8.6-1.8-16.6-5.4-23.6-10.4L44.4,162.2z"/>
		
			<linearGradient id="SVGID_00000049937680491817917480000010046140990052656307_" gradientUnits="userSpaceOnUse" x1="-5.0348" y1="-56.8557" x2="136.1787" y2="186.375">
			<stop  offset="0" style="stop-color:#F3921D"/>
			<stop  offset="1" style="stop-color:#E70E3C"/>
		</linearGradient>
		<path style="fill:url(#SVGID_00000049937680491817917480000010046140990052656307_);" d="M107.2,158l0,21.1
			c14.9-2,28.5-7.9,39.9-16.7l-14.9-14.9C124.8,152.7,116.3,156.4,107.2,158z"/>
		
			<linearGradient id="SVGID_00000073721771543648204360000006096799847506417592_" gradientUnits="userSpaceOnUse" x1="-57.6786" y1="-26.2921" x2="83.5348" y2="216.9387">
			<stop  offset="0" style="stop-color:#F3921D"/>
			<stop  offset="1" style="stop-color:#E70E3C"/>
		</linearGradient>
		<path style="fill:url(#SVGID_00000073721771543648204360000006096799847506417592_);" d="M12.6,106.2c1.7,14.2,7,27.2,14.9,38.3
			l15-15c-4.4-7-7.5-14.9-8.8-23.3L12.6,106.2z"/>
		
			<linearGradient id="SVGID_00000013174528271128999700000006954425481108164029_" gradientUnits="userSpaceOnUse" x1="45.4473" y1="-86.1643" x2="186.6608" y2="157.0664">
			<stop  offset="0" style="stop-color:#F3921D"/>
			<stop  offset="1" style="stop-color:#E70E3C"/>
		</linearGradient>
		<path style="fill:url(#SVGID_00000013174528271128999700000006954425481108164029_);" d="M158.1,106.1c-1.4,8.7-4.6,16.9-9.2,24
			l15,15c8.1-11.2,13.5-24.6,15.2-39L158.1,106.1z"/>
		
			<linearGradient id="SVGID_00000111156860895689386710000002381104933955814042_" gradientUnits="userSpaceOnUse" x1="66.3791" y1="-98.3167" x2="207.5925" y2="144.914">
			<stop  offset="0" style="stop-color:#F3921D"/>
			<stop  offset="1" style="stop-color:#E70E3C"/>
		</linearGradient>
		<path style="fill:url(#SVGID_00000111156860895689386710000002381104933955814042_);" d="M178.5,81.9c-2.4-14-8.2-26.8-16.6-37.5
			l-14.8,14.9c4.8,6.7,8.3,14.3,10.2,22.6H178.5z"/>
	</g>
	<path d="M169.3,87.5L169.3,87.5L169.3,87.5L169.3,87.5L169.3,87.5c-2.3,4.1-9.1,7.4-9.4,7.5h0c0,0,0,0,0,0l0,0h0
		c0.2,0.1,7.1,3.4,9.4,7.5v0l0,0l0,0l0,0c2.3-4.1,9.1-7.4,9.4-7.5h0l0,0l0,0h0C178.4,94.9,171.5,91.6,169.3,87.5z"/>
	<path d="M38.2,37.2c0.1,0.2,2.6,7.4,1.3,11.9l0,0l0,0l0,0l0,0c4.5-1.3,11.7,1.3,11.9,1.3l0,0l0,0h0l0,0c-0.1-0.2-2.6-7.4-1.3-11.9
		l0,0l0,0l0,0l0,0C45.6,39.8,38.4,37.3,38.2,37.2L38.2,37.2C38.2,37.2,38.2,37.2,38.2,37.2L38.2,37.2L38.2,37.2z"/>
	<g>
		<path d="M144.7,45.2c-3.3,2.6-7,3.1-7,3.1l2,2l2,2C141.7,52.2,142.1,48.5,144.7,45.2C144.8,45.2,144.8,45.2,144.7,45.2
			C144.8,45.2,144.8,45.2,144.7,45.2z"/>
		<path d="M153.1,44.2c-0.8-4.1-0.2-7.1-0.2-7.2l0,0l0,0l0,0l0,0c-0.1,0-3,0.6-7.2-0.2c-4.2-0.8-6.9,0.8-7.6,3.3
			c-0.7,2.5,2,6.8,6.6,5c0.1-0.1,0.1-0.1,0.2-0.2c-0.1,0.1-0.1,0.1-0.2,0.2c-1.7,4.6,2.6,7.3,5,6.6
			C152.3,51.1,153.9,48.4,153.1,44.2z"/>
	</g>
	<path d="M144.7,45.2C144.8,45.2,144.8,45.2,144.7,45.2C144.8,45.2,144.8,45.2,144.7,45.2c0.1,0,0.1-0.1,0.2-0.2
		C144.9,45.1,144.8,45.2,144.7,45.2z"/>
	<g>
		<path d="M95,167c0.4-4.2,2.8-7.1,2.8-7.1h-2.8h-2.8C92.2,159.9,94.5,162.8,95,167C94.9,167,94.9,167,95,167C95,167,95,167,95,167z
			"/>
		<path d="M103.2,165.9c-1.2-2.3-6.2-3.4-8.2,1.1c0,0.1,0,0.2,0,0.2c0-0.1,0-0.2,0-0.2c-2-4.5-7-3.4-8.2-1.1c-1.3,2.3-0.5,5.3,3,7.7
			c3.5,2.4,5.2,4.9,5.2,4.9v0l0,0l0,0v0c0-0.1,1.7-2.6,5.2-4.9C103.7,171.2,104.4,168.2,103.2,165.9z"/>
	</g>
	<path d="M95,167C95,167,95,167,95,167C94.9,167,94.9,167,95,167c0,0.1,0,0.2,0,0.2C95,167.1,95,167.1,95,167z"/>
	<path d="M149.6,141.5c-4,0.7-6.9,0.2-7,0.2l0,0l0,0l0,0l0,0c0,0.1,0.6,3-0.2,7c-0.7,4.1,0.8,6.7,3.2,7.4c2.4,0.7,6.6-2,4.9-6.5
		c4.5,1.7,7.2-2.5,6.5-4.9C156.3,142.3,153.6,140.7,149.6,141.5z"/>
	<path d="M19.2,102.2c2.2,1.2,5.2,0.4,7.5-3c2.3-3.4,4.8-5,4.8-5.1h0l0,0l0,0h0c-0.1,0-2.5-1.7-4.8-5.1c-2.4-3.4-5.3-4.2-7.5-3
		c-2.2,1.2-3.3,6.1,1.1,8C15.9,96.1,17,101,19.2,102.2z"/>
	<g>
		<path d="M92.1,33.1L92.1,33.1c1.3-0.1,2.6-0.1,3.8-0.1c0.5,0,1,0,1.5,0c-0.4-0.5-2.3-3.3-2.6-7C94.4,30.1,92.1,33.1,92.1,33.1z"/>
		<path d="M98.7,21.2c-0.5,0-1.1,0.1-1.5,0.3c0,0,0,0,0,0c0.9-0.7,1.6-1.8,1.6-3.1c0-2.2-1.8-3.9-3.9-3.9c-2.2,0-3.9,1.8-3.9,3.9
			c0,1.4,0.7,2.6,1.8,3.3c-0.5-0.3-1.1-0.4-1.8-0.4c-2.2,0-3.9,1.8-3.9,3.9c0,2.2,1.8,3.9,3.9,3.9c2.1,0,3.8-1.7,3.9-3.8
			c0,0,0,0,0,0c0.1,2.1,1.8,3.7,3.9,3.7c2.2,0,3.9-1.8,3.9-3.9C102.6,23,100.9,21.2,98.7,21.2z"/>
	</g>
	<g>
		<path d="M50.3,142.4l-1.9-1.9l-1.9-1.9c0,0-0.4,3.7-3.1,6.9C46.5,142.8,50.3,142.4,50.3,142.4z"/>
		<path d="M42.9,146C42.9,146,42.9,146,42.9,146c1.4-1.5,1.4-3.9-0.1-5.4c-1.5-1.5-4-1.5-5.5,0c-1.5,1.5-1.5,4,0,5.5
			c0.4,0.4,0.8,0.7,1.3,0.9c0,0,0,0,0,0.1c-1.2-0.2-2.4,0.2-3.3,1.1c-1.5,1.5-1.5,4,0,5.5c1.5,1.5,4,1.5,5.5,0c1-1,1.3-2.3,1.1-3.6
			c0.2,0.6,0.5,1.1,0.9,1.5c1.5,1.5,4,1.5,5.5,0c1.5-1.5,1.5-4,0-5.5C46.8,144.6,44.4,144.6,42.9,146z"/>
	</g>
	<path d="M97.5,33.1C97.5,33.1,97.4,33,97.5,33.1C96.9,33,96.4,33,95.9,33c-1.3,0-2.5,0-3.8,0.1h2.7H97.5z"/>
	<path class="st17" d="M181.5,59.8c-4.7-11.1-11.4-21-19.9-29.5s-18.4-15.2-29.5-19.9c-11.5-4.9-23.6-7.3-36.2-7.3
		s-24.7,2.5-36.2,7.3c-11.1,4.7-21,11.4-29.5,19.9S15,48.8,10.3,59.8C5.5,71.3,3,83.5,3,96s2.5,24.7,7.3,36.2
		c4.7,11.1,11.4,21,19.9,29.5s18.5,15.2,29.5,19.9c11.5,4.9,23.6,7.3,36.2,7.3s24.7-2.5,36.2-7.3c11.1-4.7,21-11.4,29.5-19.9
		c8.5-8.5,15.2-18.4,19.9-29.5c4.9-11.5,7.3-23.6,7.3-36.2S186.3,71.3,181.5,59.8z M177.6,130.5c-4.5,10.6-10.9,20-19,28.2
		c-8.1,8.1-17.6,14.5-28.2,19c-10.9,4.6-22.6,7-34.5,7s-23.6-2.3-34.5-7c-10.6-4.5-20-10.9-28.2-19c-8.1-8.1-14.5-17.6-19-28.2
		c-4.6-10.9-7-22.6-7-34.5s2.3-23.6,7-34.5c4.5-10.6,10.9-20,19-28.2c8.1-8.1,17.6-14.5,28.2-19c10.9-4.6,22.6-7,34.5-7
		s23.6,2.3,34.5,7c10.6,4.5,20,10.9,28.2,19c8.1,8.1,14.5,17.6,19,28.2c4.6,10.9,7,22.6,7,34.5S182.2,119.6,177.6,130.5z"/>
	<g>
		<path class="st17" d="M95.9,100.6c-3,0-5.4,2.5-5.3,5.5c0,2.9,2.4,5.3,5.4,5.3c3,0,5.4-2.4,5.4-5.4
			C101.3,103,98.8,100.6,95.9,100.6z"/>
		<path class="st17" d="M95.9,37.8c-32.1,0-58.2,26-58.2,58.2c0,32.1,26,58.2,58.2,58.2s58.2-26,58.2-58.2
			C154.1,63.9,128,37.8,95.9,37.8z M120.2,73.6c2.2,0,4,1.9,4,4.1c0,2.2-1.9,4-4.1,4c-2.2,0-4-1.9-4-4.1
			C116.1,75.4,118,73.6,120.2,73.6z M106.1,90.9c4.6-1.5,7.8-4.8,10.7-8.4c0.1-0.2,0.3-0.3,0.6-0.7c-0.2,2.4-0.4,4.6-0.3,6.9
			c0,2.2,0.1,4.4,0.9,6.5c0.1,0.4,0,0.5-0.3,0.6c-1.9,0.5-3.8,0.9-5.8,0.8c-0.9,0-1.7-0.5-2.4-1c-1.5-1.1-2.5-2.6-3.5-4.1
			C105.8,91.2,105.7,91.1,106.1,90.9z M95.9,60.1c2.2,0,4,1.8,4,4c0,2.2-1.8,4.1-4.1,4.1c-2.2,0-4-1.8-4-4
			C91.8,61.9,93.7,60.1,95.9,60.1z M78.1,86.1c2.2,2.1,4.5,3.9,7.5,4.8c0.4,0.1,0.4,0.2,0.2,0.6c-0.6,1-1.3,1.9-2.1,2.8
			c-1.5,1.8-3.4,2.6-5.8,2.2c-1.2-0.2-2.5-0.4-3.7-0.7c-0.3-0.1-0.5-0.1-0.4-0.6c1-3.3,0.9-6.7,0.8-10.1c0-1-0.1-2-0.2-3.2
			C75.6,83.4,76.8,84.8,78.1,86.1z M71.7,73.6c2.2,0,4,1.9,4,4.1c0,2.2-1.9,4-4.1,4c-2.2,0-4-1.9-4-4.1
			C67.7,75.4,69.5,73.6,71.7,73.6z M54.2,83c0-2.2,1.9-4,4.1-4c2.2,0,4,1.9,4,4.1c0,2.2-1.9,4-4.1,4C55.9,87.1,54.1,85.2,54.2,83z
			 M126.9,126.7c0,0.7-0.2,0.9-0.9,0.9c-10.1,0-20.1,0-30.2,0c-10,0-20,0-29.9,0c-0.8,0-1-0.2-0.9-1c0-2.1,0-4.2,0-6.3
			c0-0.7,0.2-0.8,0.8-0.8c6.9,0,13.7,0,20.6,0c13.2,0,26.4,0,39.5,0c0.8,0,1,0.2,1,1C126.8,122.5,126.8,124.6,126.9,126.7z
			 M130.6,92.9c-1.9,7.4-3.3,14.8-3.7,22.5c0,0.3,0,0.7,0,1c0,1.7,0,1.7-1.8,1.7c-19.7,0-39.4,0-59.1,0c-0.9,0-1-0.2-1-1.1
			c-0.1-6.2-1.1-12.3-2.4-18.3c-0.8-3.6-1.7-7.2-2.7-10.8c0-0.1-0.1-0.3-0.1-0.4c1.6,1.6,3.2,3.2,5,4.6c4,3.1,8.3,5.2,13.4,5.7
			c2.4,0.3,4.4-0.4,6.1-2.1c2.2-2.2,3.7-4.8,5-7.6c2.8-5.9,4.8-12.2,6.4-18.6c0.1-0.3,0.2-0.6,0.3-1.2c0.6,2.2,1.1,4.2,1.7,6.1
			c1.7,5.6,3.5,11.1,6.4,16.2c1,1.8,2.2,3.5,3.6,5c1.7,1.7,3.7,2.4,6.1,2.1c5.6-0.6,10.3-3,14.5-6.6c1.4-1.2,2.6-2.5,3.9-3.7
			C131.6,89.3,131.1,91.1,130.6,92.9z M133.6,87.1c-2.2,0-4.1-1.8-4.1-4.1c0-2.2,1.8-4,4-4c2.2,0,4.1,1.8,4.1,4.1
			C137.6,85.3,135.8,87.1,133.6,87.1z"/>
	</g>
	<g>
		
			<linearGradient id="SVGID_00000032615233788645786550000000258566823359076248_" gradientUnits="userSpaceOnUse" x1="238.2787" y1="101.8241" x2="238.2787" y2="5.7368">
			<stop  offset="0" style="stop-color:#020202"/>
			<stop  offset="0.4916" style="stop-color:#775B34"/>
			<stop  offset="1" style="stop-color:#010101"/>
		</linearGradient>
		<path style="fill:url(#SVGID_00000032615233788645786550000000258566823359076248_);" d="M258.9,67.2c-0.2,0.1-0.3,0.3-0.3,0.6
			c-0.9,4.4-2.2,7.7-4.1,9.9c-1.9,2.3-4.7,3.5-8.5,3.8l-2.9,0.1h-2.7c-2.9-0.1-4.7-0.5-5.5-1.4c-0.8-0.9-1.2-3-1.3-6.4
			c0-0.9,0-2.5-0.1-4.9c0-2.4-0.1-4.7-0.1-6.9c0-2.3,0-4.5,0-6.5c0-8.4,0.1-14.3,0.2-17.7c0.1-4.2,0.5-6.9,1.1-8.1
			c0.6-1.2,2.1-1.9,4.4-2.1c0.2,0,0.3,0,0.3-0.1c0.1-0.1,0.1-0.2,0.1-0.3c0-0.1,0-0.2,0-0.3c0-0.1-0.1-0.2-0.2-0.3
			c-0.1-0.1-0.2-0.1-0.3-0.1c-3.3,0.2-6.9,0.3-10.7,0.3c-3.3,0-6.9-0.1-10.9-0.3c-0.4,0-0.6,0.2-0.6,0.6c0,0.4,0.2,0.6,0.6,0.6
			c1,0.1,1.9,0.3,2.6,0.4c0.7,0.2,1.3,0.4,1.8,0.8c0.5,0.4,0.9,0.8,1.1,1.2c0.3,0.4,0.5,1,0.6,1.9c0.2,0.9,0.2,1.7,0.3,2.5
			c0,0.8,0.1,1.9,0.1,3.4c0.1,3.9,0.2,9.5,0.2,16.7c0,9.1-0.1,15.9-0.2,20.2c-0.1,2.7-0.3,4.7-0.6,5.9c-0.4,1.2-0.9,2.1-1.7,2.5
			c-0.8,0.4-2,0.8-3.8,0.9c-0.3,0-0.5,0.2-0.5,0.6c0,0.4,0.2,0.6,0.5,0.6c4.2-0.2,7.7-0.3,10.5-0.3c4.1,0,8.6,0.1,13.5,0.2
			c4.9,0.1,8.8,0.2,11.8,0.2c3.4,0,5.2-1,5.6-3.1c0.2-0.9,0.3-2,0.3-3.4c0.1-1.4,0.1-3.4,0.1-6c0-2.6,0.1-4.4,0.1-5.2
			c0-0.3-0.1-0.5-0.3-0.6C259.2,67.1,259,67.1,258.9,67.2z"/>
		
			<linearGradient id="SVGID_00000013890300615606127480000015772625027892381316_" gradientUnits="userSpaceOnUse" x1="273.2167" y1="101.8241" x2="273.2167" y2="5.7368">
			<stop  offset="0" style="stop-color:#020202"/>
			<stop  offset="0.4916" style="stop-color:#775B34"/>
			<stop  offset="1" style="stop-color:#010101"/>
		</linearGradient>
		<path style="fill:url(#SVGID_00000013890300615606127480000015772625027892381316_);" d="M273.2,39.2c1.6,0,3-0.6,4.3-1.8
			c1.2-1.2,1.8-2.6,1.8-4.3c0-1.6-0.6-3.1-1.8-4.2c-1.2-1.2-2.6-1.8-4.3-1.8c-1.6,0-3,0.6-4.2,1.8c-1.2,1.2-1.8,2.6-1.8,4.2
			c0,1.6,0.6,3.1,1.8,4.3C270.2,38.6,271.6,39.2,273.2,39.2z"/>
		
			<linearGradient id="SVGID_00000011025353562408782010000006102321821119311274_" gradientUnits="userSpaceOnUse" x1="274.1311" y1="101.8241" x2="274.1311" y2="5.7368">
			<stop  offset="0" style="stop-color:#020202"/>
			<stop  offset="0.4916" style="stop-color:#775B34"/>
			<stop  offset="1" style="stop-color:#010101"/>
		</linearGradient>
		<path style="fill:url(#SVGID_00000011025353562408782010000006102321821119311274_);" d="M283.7,84.2c-1.3-0.2-2.3-0.4-2.8-0.6
			c-0.5-0.2-1-0.7-1.3-1.4c-0.3-0.7-0.6-1.8-0.7-3.4c-0.2-1.6-0.2-4-0.3-7.2c0-3.2,0-7.1,0.1-12c0.1-4.8,0.1-8.3,0.1-10.4
			c0-1.1-0.1-1.8-0.3-2.3c-0.2-0.4-0.7-0.6-1.4-0.6c-0.8,0-1.7,0.1-2.8,0.3c-1.1,0.2-2.6,0.5-4.6,1c-2,0.4-3.7,0.8-5.1,1.1
			c-0.2,0-0.3,0-0.3,0.1c-0.1,0.1-0.1,0.2-0.1,0.3c0,0.1,0,0.2,0,0.4c0,0.1,0.1,0.2,0.2,0.3c0.1,0.1,0.2,0.1,0.3,0.1h1.1
			c1.4,0,2.4,0.5,3,1.6c0.6,1,1,2.9,1.1,5.4c0.4,8.2,0.3,15.5-0.1,21.8c-0.1,1.5-0.3,2.6-0.7,3.4c-0.3,0.8-0.7,1.3-1.1,1.5
			c-0.4,0.2-1,0.4-1.8,0.6c-0.3,0-0.5,0.2-0.5,0.6c0,0.4,0.1,0.6,0.5,0.6c0.5,0,1.8,0,4.1-0.1c2.2-0.1,3.6-0.1,4.1-0.1
			c0.6,0,2,0,4.3,0.1c2.3,0.1,3.9,0.1,5,0.1c0.4,0,0.5-0.2,0.5-0.6C284.2,84.4,284,84.2,283.7,84.2z"/>
		
			<linearGradient id="SVGID_00000006706791273066871150000013635485176396587655_" gradientUnits="userSpaceOnUse" x1="305.8036" y1="101.8241" x2="305.8036" y2="5.7368">
			<stop  offset="0" style="stop-color:#020202"/>
			<stop  offset="0.4916" style="stop-color:#775B34"/>
			<stop  offset="1" style="stop-color:#010101"/>
		</linearGradient>
		<path style="fill:url(#SVGID_00000006706791273066871150000013635485176396587655_);" d="M308.5,47.1c-1.9,0-3,0-3.2,0v-4.8
			c0-4.7,0.3-8.2,1-10.7c1.2-4.1,3.3-6.1,6.3-6.1c1.9,0,3.5,0.9,4.8,2.7c1.3,1.8,2.3,3.9,2.7,6.4c0,0.4,0.2,0.5,0.5,0.5
			c0.3,0,0.5-0.2,0.6-0.5c0.5-3.2,0.8-5.8,0.9-8c0-1.5-0.4-2.6-1.3-3.2c-0.9-0.6-2.4-1-4.7-1c-2.5,0-4.7,0.5-6.6,1.4
			c-2,1-3.5,2-4.7,3c-3.6,3.1-6,7.2-7.3,12.3c-0.7,2.6-1,5.3-1.1,8.3c-3,0-4.8,0-5.2,0.1c-0.4,0.1-1,1.1-1.9,3.1
			c1.1-0.1,3.4-0.2,7-0.2c0.1,6.8,0.1,15.6-0.1,26.5c0,2-0.2,3.5-0.4,4.5c-0.2,1-0.6,1.6-1,2c-0.4,0.3-1.1,0.6-2.1,0.8
			c-0.3,0-0.5,0.2-0.5,0.6c0,0.4,0.1,0.6,0.5,0.6c0.5,0,1.9,0,4.2-0.1c2.3-0.1,3.7-0.1,4.2-0.1c0.4,0,1.8,0,4.3,0.1
			c2.5,0.1,4.4,0.1,5.9,0.1c0.4,0,0.5-0.2,0.5-0.6c0-0.4-0.2-0.6-0.5-0.6c-2.5-0.2-4.2-0.8-4.9-1.6c-0.8-0.8-1.2-2.4-1.2-5
			c0-0.3,0-0.6,0-1.1c0-0.5,0-1.1,0-1.9c0-0.8,0-1.5,0-2.1c0-1.6,0-4.3,0-7.9c0-3.7,0-6.4,0-8.2c0-0.7,0-1.7,0-3.1
			c0-1.4,0-2.4,0.1-2.9c2,0,4.2,0,6.5,0c2.3,0,3.8,0,4.4,0c0.3-0.1,0.6-0.6,1-1.5c0.3-0.9,0.6-1.7,0.7-2.5c-0.9,0.3-2.1,0.5-3.7,0.5
			C312.3,47.1,310.4,47.1,308.5,47.1z"/>
		
			<linearGradient id="SVGID_00000124137185222247055720000005104764575212250029_" gradientUnits="userSpaceOnUse" x1="336.9119" y1="101.8241" x2="336.9119" y2="5.7368">
			<stop  offset="0" style="stop-color:#020202"/>
			<stop  offset="0.4916" style="stop-color:#775B34"/>
			<stop  offset="1" style="stop-color:#010101"/>
		</linearGradient>
		<path style="fill:url(#SVGID_00000124137185222247055720000005104764575212250029_);" d="M352.9,77.6c-2.7,2.8-6.1,4.2-10.3,4.2
			c-4,0-7.3-1.2-9.8-3.7c-2.5-2.5-3.7-6.3-3.8-11.3c0-1.2,0-2.5,0.1-4c2.9-0.1,5.8-0.1,8.9-0.1c1.6,0,3.9,0,6.7,0c2.9,0,4.6,0,5.3,0
			c1.1,0,1.7-0.2,2.1-0.5c0.3-0.3,0.5-1,0.5-2c-0.1-3.8-1.4-7.1-4.1-10c-2.7-2.9-6-4.3-10.1-4.3c-5.6,0-10.1,2-13.5,6.1
			c-3.4,4-5.1,9.1-5,15.2c0.1,6.5,2,11.3,5.5,14.4c3.5,3.1,8.1,4.7,13.5,4.7c3.6,0,6.6-0.7,9.2-2.2c2.5-1.4,4.4-3.4,5.6-6
			c0.1-0.3,0.1-0.5-0.2-0.7C353.4,77.4,353.2,77.4,352.9,77.6z M338.1,48.2c1.4,0,2.6,0.4,3.6,1.3c1,0.9,1.7,2,2.1,3.4
			c0.4,1.4,0.7,2.7,0.8,3.9c0.1,1.2,0.2,2.4,0.2,3.6c-3.2,0.1-5.8,0.1-7.8,0.1c-1.7,0-4.3,0-7.7-0.1
			C330.3,52.3,333.3,48.2,338.1,48.2z"/>
		
			<linearGradient id="SVGID_00000013168949948879329600000015859812280355807913_" gradientUnits="userSpaceOnUse" x1="391.555" y1="101.8241" x2="391.555" y2="5.7368">
			<stop  offset="0" style="stop-color:#020202"/>
			<stop  offset="0.4916" style="stop-color:#775B34"/>
			<stop  offset="1" style="stop-color:#010101"/>
		</linearGradient>
		<path style="fill:url(#SVGID_00000013168949948879329600000015859812280355807913_);" d="M402.3,84.2c-2.3-0.2-3.8-0.9-4.5-2.2
			c-0.7-1.3-1.1-4-1.2-8.1c-0.1-2.8-0.2-8.4-0.2-16.9c0-8,0.1-14.4,0.2-19.2c0.1-4.2,0.4-6.9,1.1-8.1c0.7-1.2,2.1-1.9,4.4-2.1
			c0.2,0,0.3,0,0.3-0.1c0.1-0.1,0.1-0.2,0.1-0.3c0-0.1,0-0.2,0-0.3c0-0.1-0.1-0.2-0.2-0.3c-0.1-0.1-0.2-0.1-0.3-0.1
			c-3.3,0.2-6.9,0.3-10.7,0.3c-3.7,0-7.2-0.1-10.5-0.3c-0.2,0-0.4,0.1-0.5,0.3c-0.1,0.2-0.1,0.4,0,0.6c0.1,0.2,0.3,0.3,0.5,0.3
			c1,0.1,1.8,0.3,2.4,0.5c1.4,0.4,2.3,1.2,2.7,2.5c0.3,0.9,0.6,3.3,0.9,7.2c0.1,3.1,0.2,9.7,0.2,19.9c0,8-0.1,13.4-0.2,16.2
			c0,0.2,0,0.4,0,0.7c-0.2,3.9-0.5,6.4-1.1,7.5c-0.5,1.1-2.1,1.8-4.7,2.1c-0.3,0-0.4,0.2-0.5,0.6c0,0.4,0.1,0.6,0.5,0.6
			c3.2-0.2,6.6-0.3,10.2-0.3c3.5,0,7.1,0.1,11,0.3c0.4,0,0.5-0.2,0.5-0.6C402.7,84.4,402.6,84.2,402.3,84.2z"/>
		
			<linearGradient id="SVGID_00000052801498132846019290000016405922999363214474_" gradientUnits="userSpaceOnUse" x1="430.8105" y1="101.8241" x2="430.8105" y2="5.7368">
			<stop  offset="0" style="stop-color:#020202"/>
			<stop  offset="0.4916" style="stop-color:#775B34"/>
			<stop  offset="1" style="stop-color:#010101"/>
		</linearGradient>
		<path style="fill:url(#SVGID_00000052801498132846019290000016405922999363214474_);" d="M453.3,84.2c-1.2-0.2-2-0.4-2.6-0.6
			c-0.6-0.2-1.1-0.7-1.6-1.4c-0.4-0.7-0.7-1.7-0.7-3.1c-0.1-1.2-0.1-7.9-0.1-20c0-4.7-1.2-8-3.5-10.1c-2.3-2-5.3-3.1-9.1-3.1
			c-2.9,0-5.5,0.7-7.8,2.1c-2.3,1.4-4.1,2.9-5.4,4.7v-3.4c0-1.1-0.1-1.8-0.3-2.3c-0.2-0.4-0.7-0.6-1.4-0.6c-0.8,0-1.7,0.1-2.8,0.3
			c-1.1,0.2-2.6,0.5-4.6,1c-2,0.4-3.7,0.8-5.1,1.1c-0.2,0-0.3,0-0.3,0.1c-0.1,0.1-0.1,0.2-0.1,0.3c0,0.1,0,0.2,0,0.4
			c0,0.1,0.1,0.2,0.2,0.3c0.1,0.1,0.2,0.1,0.3,0.1h1.1c1.4,0,2.4,0.5,3,1.6c0.6,1,1,2.9,1.1,5.4c0,0.2,0,0.5,0,0.9
			c0,0.4,0,0.9,0,1.5c0,0.6,0,1.2,0,1.7c0.1,2.6,0.1,4.6,0.1,6.3c0,1.6,0,3.8-0.1,6.6c-0.1,2.4-0.1,4-0.2,4.9
			c-0.1,1.5-0.3,2.6-0.7,3.4c-0.3,0.8-0.7,1.3-1.1,1.5c-0.4,0.2-1,0.4-1.8,0.6c-0.3,0-0.4,0.2-0.4,0.6c0,0.4,0.1,0.6,0.4,0.6
			c0.5,0,1.8,0,4.1-0.1c2.2-0.1,3.6-0.1,4-0.1c0.6,0,2,0,4.3,0.1c2.3,0.1,3.9,0.1,5,0.1c0.4,0,0.5-0.2,0.5-0.6
			c0-0.4-0.2-0.6-0.5-0.6c-1-0.2-1.8-0.3-2.2-0.4c-0.5-0.1-1-0.4-1.4-0.8c-0.4-0.4-0.7-0.9-0.9-1.6c-0.2-0.7-0.3-1.6-0.3-2.7
			c-0.3-5.8-0.4-13.6-0.1-23.6c0.8-1.1,2-2.1,3.6-3c1.6-0.9,3.4-1.3,5.4-1.3c3,0,5,0.9,6.1,2.6c1.1,1.7,1.7,4.2,1.8,7.3
			c0.3,6.7,0.3,12.8,0,18.4c0,1.6-0.3,2.8-0.7,3.6c-0.4,0.8-1.2,1.3-2.3,1.4c-0.3,0-0.4,0.2-0.4,0.6c0,0.4,0.1,0.6,0.4,0.6
			c2.4-0.2,5-0.3,7.9-0.3c0.7,0,2.1,0,4.1,0.1c2,0.1,3.6,0.1,4.8,0.1c0.4,0,0.5-0.2,0.5-0.6C453.8,84.4,453.6,84.2,453.3,84.2z"/>
	</g>
	<g>
		
			<linearGradient id="SVGID_00000001663235450984306310000008287316116552163510_" gradientUnits="userSpaceOnUse" x1="241.207" y1="13.8176" x2="241.207" y2="193.4979">
			<stop  offset="0" style="stop-color:#020202"/>
			<stop  offset="0.4916" style="stop-color:#775B34"/>
			<stop  offset="1" style="stop-color:#010101"/>
		</linearGradient>
		<path style="fill:url(#SVGID_00000001663235450984306310000008287316116552163510_);" d="M248.1,106.3c6.7,0,12.1,0.8,16.4,2.4
			c1.3,0.5,2.3,1.1,2.9,2c0.6,0.8,0.9,2,0.9,3.5c0,1.1-0.2,2.7-0.4,4.9c-0.2,2.2-0.4,3.8-0.4,4.8c-0.1,0.4-0.3,0.5-0.7,0.5
			c-0.4-0.1-0.6-0.2-0.6-0.5c-0.2-2.6-0.9-4.9-2-6.8c-1.1-1.9-2.5-3.5-4.2-4.6c-1.7-1.1-3.6-1.9-5.7-2.4c-2.1-0.5-4.4-0.8-6.9-0.8
			c-7.5,0-13.1,2.5-16.9,7.4c-3.8,4.9-5.7,11.8-5.6,20.7c0,4.7,0.7,8.8,1.9,12.4c1.2,3.6,2.9,6.4,5.1,8.6c2.2,2.2,4.7,3.8,7.6,4.9
			c2.9,1.1,6,1.6,9.5,1.6c3.9,0,7.1-0.6,9.7-1.7c2.5-1.2,4.4-2.7,5.6-4.7c1.2-2,2.1-4.6,2.6-7.7c0-0.4,0.2-0.6,0.7-0.6
			c0.5,0,0.7,0.2,0.7,0.6c0.1,2.9,0.1,5,0.1,6.4c0,1.6-0.1,2.9-0.3,3.8c-0.2,1-0.5,1.7-0.9,2.3c-0.4,0.6-0.9,1-1.3,1.3
			c-0.4,0.3-1,0.6-1.8,1c-0.2,0.1-0.4,0.2-0.5,0.2c-3.6,1.6-8.6,2.3-14.8,2.3c-6.8,0-12.8-1.1-18-3.4c-5.2-2.3-9.2-5.7-12.1-10.2
			c-2.9-4.5-4.4-9.8-4.4-16c0-6.6,1.4-12.3,4.4-17.2c2.9-4.9,7-8.6,12.1-11.1S241.5,106.3,248.1,106.3z"/>
		
			<linearGradient id="SVGID_00000141424132237691056420000013658902126245065392_" gradientUnits="userSpaceOnUse" x1="301.5415" y1="13.8176" x2="301.5415" y2="193.4979">
			<stop  offset="0" style="stop-color:#020202"/>
			<stop  offset="0.4916" style="stop-color:#775B34"/>
			<stop  offset="1" style="stop-color:#010101"/>
		</linearGradient>
		<path style="fill:url(#SVGID_00000141424132237691056420000013658902126245065392_);" d="M287.9,139.9c0.9-2.1,1.8-4.2,2.7-6.3
			c0.9-2.1,1.8-4.2,2.6-6.2c0.9-2,1.5-3.5,1.8-4.4l4-9.4c0.2-0.5,0.5-1.1,0.8-1.8c0.3-0.7,0.5-1.2,0.7-1.6c0.2-0.4,0.3-0.7,0.4-0.9
			l0.7-1.6c0.3-0.5,0.5-0.9,0.6-1c0.1-0.2,0.3-0.2,0.5-0.2c0.2,0,0.6,0.4,1,1.3c4.7,12.9,8.5,22.9,11.4,29.9
			c0.3,0.7,3.2,7.6,8.8,20.8c1.1,2.5,2.1,4.2,3.2,5.1c1.1,0.9,2.7,1.4,4.8,1.7c0.3,0,0.5,0.2,0.6,0.6c0,0.4-0.1,0.6-0.5,0.6
			c-4.7-0.2-9-0.3-12.9-0.3c-2.4,0-5.2,0.1-8.3,0.3c-0.2,0-0.4-0.1-0.5-0.3c-0.1-0.2-0.1-0.4,0-0.6c0.1-0.2,0.2-0.3,0.4-0.3
			c1.8-0.2,2.9-0.6,3.3-1.4c0.4-0.7,0.3-2.2-0.4-4.2c-0.6-1.7-1.7-4.4-3.1-8.2c-1.5-3.7-2.4-6.1-2.8-7.1h-17.2
			c-2.6,6.6-4.4,11.6-5.4,15c-0.3,1-0.4,1.9-0.4,2.6c0,0.7,0.1,1.2,0.3,1.6c0.2,0.4,0.5,0.7,1,1c0.5,0.2,1,0.4,1.4,0.5
			c0.4,0.1,1,0.2,1.8,0.3c0.4,0,0.5,0.2,0.5,0.6c0,0.4-0.2,0.6-0.5,0.6c-4-0.2-7-0.3-9-0.3c-0.9,0-2.3,0-4.4,0.1
			c-2,0.1-3.5,0.1-4.5,0.1c-0.3,0-0.5-0.2-0.5-0.6c0-0.4,0.2-0.6,0.5-0.6c0.8-0.1,1.3-0.2,1.5-0.3c0.2,0,0.7-0.2,1.4-0.4
			c0.7-0.2,1.2-0.5,1.6-0.8c0.4-0.3,0.9-0.8,1.5-1.4c0.6-0.6,1.1-1.4,1.6-2.3C280.5,156.8,283.6,150,287.9,139.9z M306.4,141.2
			c-2.6-6.7-5.1-12.9-7.4-18.6l-3.3,7.9c-1.9,4.8-3.3,8.4-4.1,10.7c2.6,0.1,4.9,0.1,6.8,0.1C301.7,141.3,304.4,141.2,306.4,141.2z"
			/>
		
			<linearGradient id="SVGID_00000027597298976773444360000007230793675492514745_" gradientUnits="userSpaceOnUse" x1="354.6414" y1="13.8176" x2="354.6414" y2="193.4979">
			<stop  offset="0" style="stop-color:#020202"/>
			<stop  offset="0.4916" style="stop-color:#775B34"/>
			<stop  offset="1" style="stop-color:#010101"/>
		</linearGradient>
		<path style="fill:url(#SVGID_00000027597298976773444360000007230793675492514745_);" d="M335.5,160.5c-0.1-1.5,0-3.3,0.3-5.6
			c0.3-2.3,0.7-4.1,1.2-5.5c0.1-0.2,0.2-0.3,0.4-0.4c0.2-0.1,0.3-0.1,0.5,0c0.1,0.1,0.2,0.2,0.2,0.4c0.1,4.8,1.4,8.6,3.9,11.6
			c2.5,2.9,6.1,4.4,10.7,4.4c4.2,0,7.4-1,9.8-3c2.4-2.1,3.6-4.7,3.6-8c0-3-1.1-5.5-3.2-7.4c-2.1-1.9-5.8-4.1-10.9-6.4
			c-5.3-2.4-9-5-11.2-7.7c-2.2-2.8-3.3-6.3-3.3-10.7c0-4.8,1.9-8.6,5.6-11.5c3.7-2.9,8.3-4.3,13.9-4.3c4.2,0,7.7,0.5,10.3,1.6
			c2.6,1.1,4,2.8,4,5.1c0.1,1.4-0.2,4.5-1,9.5c0,0.2-0.1,0.4-0.3,0.5c-0.2,0.1-0.3,0.1-0.5,0c-0.2-0.1-0.3-0.3-0.3-0.6
			c-0.3-1.7-0.7-3.4-1.4-5c-0.7-1.6-1.5-3-2.6-4.3c-1.1-1.3-2.4-2.4-4-3.2c-1.6-0.8-3.4-1.2-5.3-1.2c-3.4,0-6.1,0.8-8,2.5
			c-1.9,1.6-2.9,4.1-2.9,7.3c0,1.8,0.3,3.4,1,4.8c0.6,1.5,1.6,2.7,2.9,3.9c1.3,1.1,2.5,2,3.7,2.8c1.2,0.7,2.7,1.5,4.5,2.3
			c6.5,3,10.9,5.8,13.2,8.4c2.3,2.6,3.5,6.1,3.5,10.4c0,3.3-1,6.2-2.9,8.8c-1.9,2.6-4.5,4.6-7.7,5.9c-3.2,1.4-6.7,2.1-10.6,2.1
			c-6.3,0-10.9-0.9-13.9-2.6C336.8,164.3,335.7,162.7,335.5,160.5z"/>
		
			<linearGradient id="SVGID_00000003815472295695460540000015491269217425287850_" gradientUnits="userSpaceOnUse" x1="393.3867" y1="13.8176" x2="393.3867" y2="193.4979">
			<stop  offset="0" style="stop-color:#020202"/>
			<stop  offset="0.4916" style="stop-color:#775B34"/>
			<stop  offset="1" style="stop-color:#010101"/>
		</linearGradient>
		<path style="fill:url(#SVGID_00000003815472295695460540000015491269217425287850_);" d="M398.2,138.2c0,8.5,0.1,14.2,0.2,16.9
			c0.1,4.1,0.4,6.8,1.2,8.1c0.7,1.3,2.2,2,4.5,2.2c0.3,0,0.5,0.2,0.5,0.6c0,0.4-0.1,0.6-0.5,0.6c-3.8-0.2-7.5-0.3-11-0.3
			c-3.6,0-7,0.1-10.2,0.3c-0.3,0-0.5-0.2-0.5-0.6c0-0.4,0.2-0.6,0.5-0.6c2.6-0.3,4.1-1,4.7-2.1c0.5-1.1,0.9-3.6,1.1-7.5
			c0-0.3,0-0.5,0-0.7c0.1-2.8,0.2-8.2,0.2-16.2c0-10.2-0.1-16.8-0.2-19.9c-0.2-3.9-0.5-6.3-0.9-7.2c-0.4-1.2-1.3-2-2.7-2.5
			c-0.6-0.2-1.4-0.3-2.4-0.5c-0.2,0-0.4-0.1-0.5-0.3c-0.1-0.2-0.1-0.4,0-0.6c0.1-0.2,0.3-0.3,0.5-0.3c3.3,0.2,6.8,0.3,10.5,0.3
			c3.8,0,7.3-0.1,10.7-0.3c0.1,0,0.2,0,0.3,0.1c0.1,0.1,0.1,0.2,0.2,0.3c0,0.1,0,0.2,0,0.3c0,0.1-0.1,0.2-0.1,0.3
			c-0.1,0.1-0.2,0.1-0.3,0.1c-2.3,0.2-3.8,0.9-4.4,2.1c-0.7,1.2-1,3.9-1.1,8.1C398.3,123.7,398.2,130.1,398.2,138.2z"/>
		
			<linearGradient id="SVGID_00000040556172579836376870000009200422801995037572_" gradientUnits="userSpaceOnUse" x1="446.9267" y1="13.8176" x2="446.9267" y2="193.4979">
			<stop  offset="0" style="stop-color:#020202"/>
			<stop  offset="0.4916" style="stop-color:#775B34"/>
			<stop  offset="1" style="stop-color:#010101"/>
		</linearGradient>
		<path style="fill:url(#SVGID_00000040556172579836376870000009200422801995037572_);" d="M473.6,116.2c-0.4,9.1-0.7,18.4-0.8,27.9
			c-0.1,2.2-0.1,9.4-0.1,21.5c0,1.3-0.1,2-0.3,2.1c-0.1,0-0.1,0-0.2,0c0,0-0.1,0-0.1,0c0,0-0.1,0-0.2-0.1c-0.1,0-0.1-0.1-0.2-0.2
			c-0.1-0.1-0.1-0.1-0.3-0.2c-0.1-0.1-0.2-0.2-0.3-0.3c-0.1-0.1-0.2-0.2-0.4-0.4c-0.2-0.2-0.3-0.3-0.5-0.5
			c-4.2-4.4-12.6-12.4-25.1-24c-10-9.3-16.7-15.4-20.1-18.3c0.3,17.6,0.6,29.2,0.8,34.8c0.1,1.9,0.7,3.4,1.7,4.6
			c1.1,1.2,3,1.9,5.8,2.1c0.3,0,0.4,0.2,0.5,0.6c0,0.4-0.1,0.6-0.5,0.6c-5.1-0.2-8.6-0.3-10.5-0.3c-0.8,0-1.9,0-3.4,0.1l-4,0.1
			c-0.4,0-0.5-0.2-0.5-0.6c0-0.4,0.2-0.6,0.5-0.6c1.8-0.3,3-0.9,3.7-1.6c0.7-0.8,1.1-2.3,1.3-4.6c0.6-9.1,1-20.3,1-33.6
			c0-9.6,0-15.2-0.1-16.8c0-1.2,0.1-1.8,0.4-1.9c0.3-0.1,1,0.4,2,1.5c7,7.5,15.1,15.5,24.3,23.9c9.5,8.6,16.4,14.8,20.9,18.4
			c0-15.5-0.2-26.5-0.5-33.2c-0.2-3.4-0.6-5.6-1.3-6.6c-0.7-1-2.4-1.6-5-2c-0.4,0-0.5-0.2-0.5-0.6c0-0.4,0.2-0.6,0.5-0.6
			c3.4,0.2,6.4,0.3,8.9,0.3c0.2,0,1.3,0,3.2-0.1c0.8-0.1,2.2-0.1,4-0.2c0.4,0,0.5,0.2,0.5,0.6c0,0.4-0.2,0.6-0.5,0.6
			c-1.7,0.3-2.8,1-3.5,2.2C474.1,112.2,473.7,113.9,473.6,116.2z"/>
		
			<linearGradient id="SVGID_00000169533412736359018380000001981833606013590668_" gradientUnits="userSpaceOnUse" x1="519.9019" y1="13.8176" x2="519.9019" y2="193.4979">
			<stop  offset="0" style="stop-color:#020202"/>
			<stop  offset="0.4916" style="stop-color:#775B34"/>
			<stop  offset="1" style="stop-color:#010101"/>
		</linearGradient>
		<path style="fill:url(#SVGID_00000169533412736359018380000001981833606013590668_);" d="M552.5,135.7c0,4.6-0.8,8.9-2.5,12.9
			c-1.7,4-3.9,7.4-6.8,10.2s-6.3,5-10.3,6.7c-4,1.6-8.3,2.5-12.8,2.5c-4.7,0-9.1-0.7-13.1-2c-4-1.3-7.4-3.2-10.4-5.7
			c-2.9-2.5-5.2-5.7-6.9-9.5c-1.7-3.8-2.5-8.2-2.5-13c0-6.1,1.4-11.5,4.3-16.3c2.8-4.8,6.8-8.5,12-11.1c5.2-2.7,11-4,17.6-4
			c3.9,0,7.5,0.5,10.9,1.6c3.4,1.1,6.3,2.6,8.8,4.4c2.5,1.9,4.6,4.1,6.3,6.5c1.8,2.5,3.1,5.2,3.9,8
			C552.1,129.8,552.5,132.7,552.5,135.7z M517.8,109.3c-6.5,0.2-11.5,2.8-14.9,7.8c-3.4,5-5.1,11.6-5.1,19.9c0,8.3,2,15.1,6.1,20.2
			c4.1,5.2,9.6,7.8,16.4,7.8c4.5,0,8.4-1.1,11.8-3.4c3.3-2.3,5.8-5.4,7.5-9.2c1.6-3.9,2.5-8.2,2.5-13.1c0-8.4-1.9-15.4-5.8-20.9
			C531.9,112.1,525.8,109.1,517.8,109.3z"/>
	</g>
</g>
</svg>
