<svg width="303" height="301" viewBox="0 0 303 301" fill="none" xmlns="http://www.w3.org/2000/svg">
<path d="M175.98 248.8C175.98 232.97 176.17 217.14 175.87 201.32C175.78 196.7 177.37 195.66 181.6 195.81C189.92 196.09 198.26 195.79 206.59 195.94C209.75 196 210.93 194.79 211.37 191.69C213.02 180.17 214.92 168.69 216.76 157.21C217.63 151.76 217.11 151.07 211.69 151.06C201.19 151.04 190.7 150.97 180.2 151.1C177.04 151.14 175.8 150.3 175.9 146.87C176.15 138.38 175.94 129.88 176 121.38C176.09 108.71 183.1 101.04 195.68 100.15C201.98 99.71 208.33 99.65 214.65 99.68C217.83 99.7 219.17 98.63 219.13 95.35C219.01 85.52 219.05 75.69 219.11 65.86C219.13 62.91 218.22 61.17 214.94 60.92C204.66 60.14 194.46 58.7 184.08 58.79C152.2 59.05 131.57 77.64 128.14 109.38C126.81 121.7 127.47 134.01 127.43 146.32C127.42 150.08 126.38 151.21 122.66 151.12C113.17 150.89 103.66 151.18 94.1701 150.98C90.4101 150.9 89.28 152.29 89.34 155.95C89.52 167.78 89.54 179.61 89.33 191.44C89.27 195.04 90.4801 196.02 93.9201 195.95C103.41 195.76 112.91 195.99 122.41 195.83C125.88 195.77 127.43 196.54 127.41 200.52C127.26 232.84 127.3 265.17 127.38 297.49C127.38 300.33 126.85 301.38 123.77 300.78C96.1401 295.42 71.77 283.39 51.07 264.41C14.33 230.73 -2.25994 188.52 1.51006 139.1C4.81006 95.87 24.23 60.32 57.97 32.91C77.86 16.75 100.56 6.33001 125.83 2.22001C160.98 -3.50999 194.46 1.71001 225.58 19.54C261.19 39.95 284.63 70.2 296.43 109.32C302.35 128.96 303.74 149.15 301.29 169.6C297.23 203.5 283.36 232.8 259.76 257.3C237.65 280.25 210.6 294.48 179.34 300.78C176 301.45 175.91 299.88 175.92 297.3C176.01 281.14 175.97 264.98 175.97 248.81L175.98 248.8Z" fill="black"/>
</svg>
