<?xml version="1.0" encoding="UTF-8"?>
<svg width="53px" height="50px" viewBox="0 0 53 50" version="1.1" xmlns="http://www.w3.org/2000/svg" xmlns:xlink="http://www.w3.org/1999/xlink">
    <!-- Generator: Sketch 63.1 (92452) - https://sketch.com -->
    <title>icon-live</title>
    <desc>Created with Sketch.</desc>
    <defs>
        <circle id="path-1" cx="19.5" cy="19.5" r="19.5"></circle>
        <radialGradient cx="50.2399427%" cy="25.8357279%" fx="50.2399427%" fy="25.8357279%" r="83.5041358%" gradientTransform="translate(0.502399,0.258357),scale(1.000000,0.672789),rotate(72.331145),scale(1.000000,0.494719),translate(-0.502399,-0.258357)" id="radialGradient-3">
            <stop stop-color="#CDAE74" offset="0%"></stop>
            <stop stop-color="#946F3B" offset="100%"></stop>
        </radialGradient>
    </defs>
    <g id="Symbols" stroke="none" stroke-width="1" fill="none" fill-rule="evenodd">
        <g id="nav" transform="translate(-81.000000, -26.000000)">
            <g id="NAV-/-hover">
                <g id="LIVE" transform="translate(81.000000, 5.000000)">
                    <g id="live">
                        <g transform="translate(1.000000, 0.000000)" id="icon-live">
                            <g transform="translate(6.000000, 26.000000)">
                                <mask id="mask-2" fill="white">
                                    <use xlink:href="#path-1"></use>
                                </mask>
                                <g id="Oval"></g>
                                <path d="M11.5196316,25.8705263 L14.3127895,30.7968421 C14.3127895,30.7968421 15.2980526,29.8115789 16.7759474,28.5815789 C18.2538421,27.35 19.3212105,26.8557895 19.3212105,26.8557895 C19.3212105,26.8557895 21.8664737,28.0068421 23.4248947,29.2368421 C24.9864737,30.4684211 25.397,30.9626316 25.397,30.9626316 L25.397,30.9626316 L25.2912105,45.0736842 L17.9254211,44.8368421 C17.9254211,44.8368421 15.0517368,41.8826316 13.8185789,39.6642105 C12.5885789,37.4473684 12.5048947,35.5605263 12.5048947,35.5605263 C12.5048947,35.5605263 8.48331579,35.6410526 7.58015789,31.2073684 C6.677,26.7736842 11.5196316,25.8705263 11.5196316,25.8705263 L11.5196316,25.8705263 Z M19.633862,0.578300649 L19.9778947,0.582263158 C26.4642105,0.748052632 28.5168421,9.12121053 29.7468421,12.9817368 C30.98,16.8391053 31.5547368,17.9901579 32.9505263,17.9901579 C34.3463158,17.9901579 34.8389474,16.5106842 34.8389474,16.5106842 C34.8389474,16.5106842 35.3315789,18.647 34.1,21.3564737 C32.8684211,24.0643684 31.3084211,24.4748947 31.3084211,24.4748947 C31.3084211,24.4748947 29.8526316,35.9143684 29.1547368,45.0091053 L29.1547368,45.0091053 L27.6342105,45.0012105 C27.9626316,40.3022632 28.5578947,35.5180526 28.8452632,32.6854211 C29.4184211,27.0201579 30.5694737,21.6848947 27.1194737,20.4517368 C23.6726316,19.2201579 21.0452632,24.6406842 21.0452632,24.6406842 L21.0452632,24.6406842 L21.3736842,20.0412105 C21.3736842,20.0412105 23.6726316,19.4664737 24.4936842,15.9359474 C25.3147368,12.407 21.8663158,9.28542105 21.8663158,9.28542105 C21.8663158,9.28542105 23.3442105,5.91910526 22.2768421,3.94857895 C22.2768421,3.94857895 22.6052632,8.05542105 19.0747368,11.0112105 C15.5442105,13.9654211 13.0810526,14.7059474 13.0810526,14.7059474 C13.0810526,14.7059474 12.9610526,16.2627895 14.3126316,18.1527895 C15.5442105,19.877 17.1042105,20.2054211 17.1042105,20.2054211 C17.1042105,20.2054211 17.1042105,23.6554211 13.6557895,23.9001579 C10.2073684,24.1464737 7.08736842,22.0133158 5.69157895,18.3991053 C4.29578947,14.7864737 5.44526316,12.9817368 5.44526316,12.9817368 C5.44526316,12.9817368 5.85578947,14.9506842 7.74421053,14.7059474 C9.63263158,14.4580526 9.46842105,11.5022632 10.0431579,8.38384211 C10.6178947,5.26226316 13.4915789,0.419631579 19.9778947,0.582263158 Z M16.3654211,34.1631579 C16.3654211,34.1631579 17.7706842,36.8584211 20.3980526,36.8584211 C23.0254211,36.8584211 24.0012105,34.1631579 24.0012105,34.1631579 L23.9982324,34.1672707 L23.990424,34.1796384 C23.8954016,34.3193948 23.1527107,35.3076103 20.9817706,35.5853994 L20.7248947,35.6142105 C18.1796316,35.8605263 16.3654211,34.1631579 16.3654211,34.1631579 Z M18.9659474,15.8295263 C19.1838421,15.7821579 19.9480526,15.2311053 20.3491053,15.659 C20.6901579,16.0237368 20.3854211,16.7216316 20.6412105,16.8984737 C21.0296316,17.1653158 21.4164737,16.5811053 21.4164737,16.5811053 C21.4164737,16.5811053 21.3691053,17.0926842 20.7375263,17.2142632 C20.6885789,17.2237368 20.6396316,17.2284737 20.5938421,17.2316316 C20.5796316,17.7226842 20.4154211,19.1595263 18.9659474,19.1800526 C17.2985789,19.2037368 17.2417368,17.3468947 17.2417368,17.0768947 C16.5912105,16.9395263 16.6117368,16.5337368 16.6117368,16.5337368 C16.6117368,16.5337368 16.8185789,16.9505789 17.2906842,16.8258421 C17.6554211,16.7279474 17.237,15.9053158 17.7280526,15.5879474 C18.1401579,15.3211053 18.7480526,15.8784737 18.9659474,15.8295263 Z M19.0385789,16.8479474 C18.7212105,16.8226842 18.4101579,16.9253158 18.0991053,17.009 C18.2380526,17.2995263 18.5459474,17.8300526 18.917,17.7953158 C19.2722632,17.7621579 19.5896316,17.3184737 19.7522632,17.0500526 C19.5185789,16.9616316 19.2880526,16.8700526 19.0385789,16.8479474 Z" fill="url(#radialGradient-3)" mask="url(#mask-2)"></path>
                            </g>
                        </g>
                    </g>
                </g>
            </g>
        </g>
    </g>
</svg>