<svg width="303" height="302" viewBox="0 0 303 302" fill="none" xmlns="http://www.w3.org/2000/svg">
<path d="M151.43 301.12C69.6201 302.21 -0.460008 234.35 0.949992 147.9C2.25999 67.82 67.93 -2.09998 156.1 0.150015C236.17 2.19002 303.53 67.82 302.29 153.32C301.1 235.3 234.02 302.13 151.44 301.12H151.43ZM151.7 245.69C164.86 245.69 178.05 246.15 191.18 245.57C207.04 244.87 221.67 240.55 232.77 228.08C241.47 218.31 245.3 206.59 246.05 193.88C247.76 164.77 248.06 135.61 245.93 106.52C243.8 77.46 226.08 59.83 197.49 56.6C187.52 55.47 177.56 55.21 167.57 55.39C146.1 55.78 124.56 53.95 103.18 56.94C84.2601 59.58 69.9301 68.78 62.0201 86.84C57.9901 96.04 56.8401 105.8 56.5601 115.58C56.0901 131.9 56.33 148.23 56.25 164.56C56.19 177.05 55.88 189.58 58.24 201.92C60.14 211.84 63.8801 220.92 70.9001 228.55C82.0701 240.69 96.54 244.89 112.21 245.58C125.35 246.16 138.53 245.7 151.69 245.7L151.7 245.69Z" fill="black"/>
<path d="M74.05 150.45C74.23 135.32 73.88 120.2 75.16 105.06C76.59 88.22 90.52 75.23 108.56 74C130.68 72.49 152.81 72.5 174.92 73.07C186.07 73.36 197.53 72.69 208.32 77.34C220.29 82.49 226.77 91.94 227.79 104.19C230.38 135.07 230.16 166.04 227.93 196.95C226.76 213.19 213.82 225.25 197.69 227.01C173.94 229.6 150.13 228.69 126.36 228.44C115.55 228.32 104.4 228.58 94.06 223.8C82.25 218.35 76.88 208.61 75.3 196.35C73.33 181.11 74.22 165.77 74.05 150.46V150.45ZM151.42 200.03C178.15 200.35 200.41 178.8 200.84 152.2C201.3 123.71 180.3 101.82 151.87 101.41C124.46 101.01 102.75 123.84 102.3 149.74C101.82 176.84 123.92 200.14 151.41 200.03H151.42ZM202.34 111.72C209.09 111.68 213.94 106.75 213.88 100C213.82 93.21 208.87 88.21 202.28 88.29C195.81 88.37 190.53 93.6 190.45 100.03C190.38 106.14 196.1 111.76 202.33 111.72H202.34Z" fill="black"/>
<path d="M151.32 181.9C134.11 181.86 120.26 168 120.21 150.78C120.16 133.31 134.05 119.54 151.71 119.57C169.3 119.59 183.31 133.58 183.11 150.92C182.91 168.38 168.99 181.94 151.31 181.9H151.32Z" fill="black"/>
</svg>
