<svg width="302" height="302" viewBox="0 0 302 302" fill="none" xmlns="http://www.w3.org/2000/svg">
<path d="M150.58 301.12C68.54 302.21 -1.33999 234.31 0.0200122 147.99C1.28001 67.78 67.03 -2.04999 155.07 0.140008C235.26 2.14001 302.53 67.9 301.35 153.22C300.21 235.17 233.05 302.13 150.58 301.11V301.12ZM150.49 215.95C172.81 215.95 195.15 215.51 217.46 216.14C228.47 216.45 235.81 208.61 235.83 198.36C235.89 167.04 236.04 135.72 235.76 104.4C235.65 92.47 229 86.53 217.12 86.49C202.29 86.44 187.47 86.48 172.64 86.48C143.15 86.48 113.66 86.45 84.18 86.5C72.89 86.52 66.24 92.68 66.22 103.3C66.15 135.45 66.3 167.61 66.11 199.76C66.06 207.46 72.83 216.34 82.53 216.12C105.18 215.61 127.84 215.96 150.5 215.96L150.49 215.95Z" fill="black"/>
<path d="M150.87 106.88C169.87 106.88 188.86 106.82 207.86 106.95C210.4 106.97 214.44 105.45 214.96 109.38C215.52 113.56 216.72 118.23 212.15 121.74C200.41 130.77 188.89 140.09 177.26 149.27C172.17 153.29 167.04 157.28 161.89 161.23C153.93 167.34 147.51 167.46 139.65 161.32C122.86 148.21 106.16 134.97 89.4499 121.76C86.5599 119.48 84.7699 111.51 86.4799 108.57C87.7199 106.43 89.9499 106.91 91.8699 106.9C111.53 106.86 131.19 106.88 150.86 106.88H150.87Z" fill="black"/>
<path d="M150.46 195.92C131.14 195.92 111.82 195.77 92.5 196.02C87.45 196.08 85.92 194.5 86.03 189.45C86.35 174.8 86.12 160.14 86.18 145.48C86.18 143.93 85.37 141.81 87.17 141C88.67 140.32 89.81 142.07 90.95 142.95C104.46 153.48 117.99 163.99 131.43 174.61C143.06 183.79 157.28 184.22 169.19 175.16C183.09 164.58 196.77 153.71 210.55 142.98C211.69 142.09 212.79 140.3 214.29 140.99C216.06 141.81 215.25 143.94 215.25 145.48C215.31 160.3 215.11 175.13 215.39 189.95C215.48 194.59 213.97 196.03 209.43 195.99C189.78 195.82 170.12 195.92 150.47 195.92H150.46Z" fill="black"/>
</svg>
