<svg width="303" height="302" viewBox="0 0 303 302" fill="none" xmlns="http://www.w3.org/2000/svg">
<path d="M151.44 301.12C69.5 302.19 -0.429929 234.3 0.96007 147.91C2.25007 67.82 67.94 -2.10003 156.09 0.13997C236.16 2.17997 303.52 67.81 302.29 153.3C301.11 235.33 233.89 302.15 151.44 301.11V301.12ZM191.05 249.94C234.88 249.96 263.32 206.01 245.82 166.78C244.84 164.59 244.32 162.52 244.5 160.07C247.04 125.1 234.19 96.84 206.4 75.78C187.89 61.76 166.51 56.53 143.39 58.61C141.18 58.81 139.23 58.61 137.13 57.66C125.64 52.52 113.86 50.78 101.17 52.83C64.7501 58.72 42.07 101.03 57.86 134.53C59.18 137.34 59.61 140 59.42 143.12C57.35 175.57 68.5501 202.59 93.6401 223.33C113.01 239.34 135.72 245.47 160.66 243.77C162.97 243.61 165.16 243.48 167.44 244.63C175.15 248.52 183.37 250.38 191.06 249.94H191.05Z" fill="black"/>
<path d="M156.88 98.39C163.14 98.19 170.2 98.92 176.96 101.7C179.33 102.68 181.58 103.92 182.92 106.06C185.13 109.6 185.29 113.53 182.65 116.84C179.78 120.44 175.63 119.76 172.11 118.19C165.11 115.05 157.88 113.56 150.29 113.98C141.36 114.47 135.8 119.78 136.42 126.99C136.88 132.35 140.81 135.01 144.93 137.28C150.62 140.42 156.73 142.63 162.75 145.04C169.89 147.9 176.87 151.27 181.91 157.3C195.54 173.63 187.6 197.44 166.73 202.57C153.05 205.93 139.34 205.7 125.97 200.71C121.01 198.86 116.39 196.57 115.96 190.28C115.57 184.51 118.42 181.49 124.19 181.6C128.52 181.68 132.19 183.67 135.94 185.45C143.1 188.85 150.57 189.65 158.29 187.88C162.82 186.84 166.11 184.36 167.29 179.59C168.54 174.5 167.05 170.36 162.97 167.2C155.1 161.08 145.4 158.56 136.73 154.01C128.96 149.94 120.46 146.68 117.34 137.26C113.28 125.02 115.52 112.08 128.16 104.77C136.91 99.71 142.51 98.38 156.88 98.39Z" fill="black"/>
</svg>
