<svg width="302" height="302" viewBox="0 0 302 302" fill="none" xmlns="http://www.w3.org/2000/svg">
<path d="M150.7 301.12C68.54 302.27 -1.27002 234.31 0.0199783 148.11C1.21998 67.88 67.02 -2.26001 155.45 0.149992C235.4 2.32999 302.46 67.91 301.35 153.1C300.28 235.15 233.07 302.07 150.7 301.11V301.12ZM124.43 210.17C124.81 212.06 123.67 214.46 125.62 215.38C127.89 216.45 129.66 214.53 131.22 213.06C134.73 209.75 138.12 206.3 141.64 202.99C149.77 195.36 146.79 194.44 157.06 202.01C165.64 208.33 174.09 214.82 182.72 221.06C189.79 226.17 195.67 224.01 197.53 215.71C199.63 206.31 201.54 196.86 203.56 187.44C209.41 160.13 215.28 132.83 221.1 105.51C221.88 101.83 222.08 98.07 218.69 95.41C215.53 92.94 212.15 93.81 208.75 95.12C169.05 110.42 129.34 125.68 89.65 141C83.14 143.51 76.67 146.13 70.3 148.96C68.22 149.88 66.16 151.53 66.47 154.29C66.75 156.72 68.82 157.79 70.81 158.71C71.86 159.2 72.98 159.55 74.09 159.89C83.75 162.92 93.45 165.83 103.07 169.01C106.25 170.06 108.75 169.5 111.49 167.75C136.47 151.85 161.51 136.05 186.54 120.23C188.32 119.11 190.81 116.79 192.18 118.54C193.78 120.59 190.53 121.93 189.11 123.22C169.49 140.96 149.79 158.63 130.12 176.32C128.4 177.87 126.45 179.25 126.41 181.95C126.29 191.45 125.66 200.91 124.44 210.18L124.43 210.17Z" fill="black"/>
</svg>
