<svg width="302" height="302" viewBox="0 0 302 302" fill="none" xmlns="http://www.w3.org/2000/svg">
<path d="M151.15 301.12C69.59 302.2 -0.799981 235.4 0.460019 148.11C1.63002 67.09 67.79 -2.24998 155.94 0.17002C235.52 2.35002 302.69 66.99 301.85 152.65C301.04 235.47 233.58 302 151.15 301.12ZM250.78 153.11C250.89 143.98 250.36 135.04 248.14 126.24C246.88 121.23 245.21 116.37 243.29 111.57C224.28 63.91 168.57 38.21 120.02 54.56C62.03 74.08 33.63 140.2 62.07 195.01C63.86 198.46 63.92 201.63 62.97 205.08C59.12 219.02 55.25 232.95 51.35 246.88C50.51 249.87 50.62 251.33 54.51 250.25C66.84 246.84 79.3 243.88 91.62 240.42C98.49 238.49 104.71 237.62 111.66 241.26C121.27 246.3 132.02 248.45 142.85 249.32C164.05 251.03 183.96 246.58 202.07 235.36C232.6 216.44 248.53 188.75 250.78 153.09V153.11Z" fill="black"/>
<path d="M75.03 226.86C77.35 218.26 79.37 210.44 81.59 202.69C82.64 199 82.46 195.96 80.32 192.38C51.39 144 77.73 81.61 132.79 69.26C179.61 58.76 222.74 89.12 231.58 132.57C240.43 176.1 215.6 214.18 178.03 227.64C154.89 235.94 132.15 233.21 110.62 221.47C106.92 219.45 103.75 219.1 99.8 220.28C91.91 222.65 83.88 224.54 75.03 226.85V226.86ZM100.21 125.9C100.16 131.95 100.66 136.77 103.09 141.11C115.69 163.65 131.38 183.05 156.4 192.75C165.11 196.13 173.85 199.27 183.54 197.18C193.68 194.99 200.74 187.88 201.68 178.49C202.05 174.83 201.32 172.16 197.39 170.58C191.53 168.23 185.87 165.4 180.19 162.62C176.91 161.02 174.56 161.69 172.49 164.66C170.68 167.25 168.57 169.62 166.58 172.07C164.78 174.3 162.89 174.63 160.03 173.5C147.71 168.62 138.06 160.51 130.49 149.81C124.67 141.58 125.88 141.73 130.77 136.22C134.29 132.25 135.53 128.22 132.54 123.1C130.3 119.26 129.04 114.85 127.41 110.67C124.26 102.54 114.61 100.56 108.52 106.93C103.15 112.53 99.52 118.93 100.2 125.9H100.21Z" fill="black"/>
</svg>
